<svg width="100%" height="100%" viewBox="0 0 154 40" fill="none" xmlns="http://www.w3.org/2000/svg">
<path d="M153.247 0H0V30.8235L9.14906 40H70.4478V36.2353H82.799V40H144.098L153.247 30.8235V0Z" fill="#FF00BF"/>
<path fill-rule="evenodd" clip-rule="evenodd" d="M153.247 0H0V30.8235L9.14906 40H70.4478V36.2353H82.799V40H144.098L153.247 30.8235V0Z" fill="url(#paint0_linear_538_108)"/>
<path d="M39.6679 16.6083V16.5663V16.5243V16.6083ZM39.9339 24.1123C39.9899 24.1869 40.0086 24.2989 39.9899 24.4483C39.9619 24.6349 39.8546 24.7283 39.6679 24.7283H38.1279C37.9973 24.7283 37.8993 24.7003 37.8339 24.6443C37.8059 24.6256 37.7779 24.6023 37.7499 24.5743C37.7313 24.5369 37.7079 24.4949 37.6799 24.4483L35.1459 19.9543H32.1919V24.2383C32.1919 24.4529 32.1406 24.5883 32.0379 24.6443C31.9446 24.7003 31.8653 24.7283 31.7999 24.7283H30.5259C30.4606 24.7283 30.3766 24.7003 30.2739 24.6443C30.1713 24.5883 30.1199 24.4529 30.1199 24.2383V18.3583C30.1199 18.1436 30.1713 18.0129 30.2739 17.9663C30.3766 17.9103 30.4606 17.8823 30.5259 17.8823H36.6159C36.9706 17.8823 37.2179 17.7796 37.3579 17.5743C37.5073 17.3689 37.5819 17.0329 37.5819 16.5663C37.5819 16.0996 37.5073 15.7636 37.3579 15.5583C37.2179 15.3529 36.9706 15.2503 36.6159 15.2503H30.5259C30.4606 15.2503 30.3766 15.2269 30.2739 15.1803C30.1713 15.1243 30.1199 14.9889 30.1199 14.7743V13.6683C30.1199 13.4443 30.1713 13.3089 30.2739 13.2623C30.3766 13.2063 30.4606 13.1783 30.5259 13.1783H36.9799C37.9413 13.1783 38.6319 13.4769 39.0519 14.0743C39.4533 14.6529 39.6586 15.4836 39.6679 16.5663C39.6586 17.6489 39.4533 18.4796 39.0519 19.0583C38.6973 19.5436 38.1746 19.8283 37.4839 19.9123L39.9339 24.1123ZM51.3582 22.2083C51.4235 22.2083 51.5075 22.2363 51.6102 22.2923C51.7128 22.3389 51.7642 22.4696 51.7642 22.6843V24.2243C51.7642 24.4389 51.7128 24.5743 51.6102 24.6303C51.5075 24.6769 51.4235 24.7003 51.3582 24.7003H46.3882C45.7535 24.7003 45.2308 24.6209 44.8202 24.4623C44.3628 24.3036 43.9988 24.0469 43.7282 23.6923C43.4482 23.3283 43.2475 22.8709 43.1262 22.3203C43.0795 22.0869 43.0375 21.8303 43.0002 21.5503C42.9722 21.2703 42.9535 20.9669 42.9442 20.6403V20.5703L42.9722 18.8063C43.0002 18.7036 43.0515 18.5869 43.1262 18.4563C43.3315 18.0923 43.6488 17.8963 44.0782 17.8683L51.3022 17.8543C51.3582 17.8543 51.4375 17.8823 51.5402 17.9383C51.6428 17.9849 51.6942 18.1156 51.6942 18.3303V19.4363C51.6942 19.6509 51.6428 19.7863 51.5402 19.8423C51.4375 19.8983 51.3582 19.9263 51.3022 19.9263H45.0442C45.0348 19.9263 45.0302 19.9776 45.0302 20.0803C45.0302 20.1829 45.0302 20.2996 45.0302 20.4303C45.0302 20.5796 45.0255 20.7476 45.0162 20.9343C45.0255 20.9716 45.0302 21.0136 45.0302 21.0603C45.0302 21.0976 45.0348 21.1349 45.0442 21.1723C45.0815 21.4336 45.1608 21.6436 45.2822 21.8023C45.3942 21.9423 45.5342 22.0449 45.7022 22.1103C45.8048 22.1383 45.9122 22.1616 46.0242 22.1803C46.1455 22.1989 46.2808 22.2083 46.4302 22.2083H51.3582ZM51.3722 13.1503C51.4282 13.1503 51.5075 13.1783 51.6102 13.2343C51.7128 13.2903 51.7642 13.4256 51.7642 13.6403V14.7463C51.7642 14.9609 51.7128 15.0963 51.6102 15.1523C51.5075 15.2083 51.4282 15.2363 51.3722 15.2363L43.3222 15.2223C43.2662 15.2223 43.1868 15.1989 43.0842 15.1523C42.9908 15.0963 42.9442 14.9609 42.9442 14.7463V13.6543C42.9442 13.4303 42.9908 13.2903 43.0842 13.2343C43.1868 13.1783 43.2662 13.1503 43.3222 13.1503H51.3722ZM64.18 13.1783C64.236 13.1783 64.3153 13.2063 64.418 13.2623C64.5206 13.3183 64.572 13.4536 64.572 13.6683V14.7603C64.572 14.9843 64.5206 15.1243 64.418 15.1803C64.3153 15.2269 64.236 15.2503 64.18 15.2503H58.23C58.0806 15.2503 57.9453 15.2596 57.824 15.2783C57.7026 15.2969 57.5953 15.3203 57.502 15.3483C57.334 15.4136 57.194 15.5163 57.082 15.6563C56.97 15.8243 56.8953 16.0296 56.858 16.2723C56.802 16.5523 56.774 16.9023 56.774 17.3223V20.5703C56.774 20.9903 56.802 21.3403 56.858 21.6203C56.8953 21.8723 56.97 22.0776 57.082 22.2363C57.194 22.3856 57.334 22.4883 57.502 22.5443C57.67 22.6096 57.9126 22.6423 58.23 22.6423H62.15C62.3086 22.6423 62.4206 22.5909 62.486 22.4883C62.514 22.4416 62.542 22.3669 62.57 22.2643C62.598 22.1616 62.612 22.0029 62.612 21.7883L62.598 19.8283H59.112C59.084 19.8283 59.0466 19.8236 59 19.8143C58.9533 19.8049 58.9066 19.7863 58.86 19.7583C58.8226 19.7209 58.79 19.6696 58.762 19.6043C58.734 19.5296 58.72 19.4363 58.72 19.3243V18.2603C58.72 18.0363 58.7713 17.8963 58.874 17.8403C58.9766 17.7843 59.056 17.7563 59.112 17.7563H64.068C64.1613 17.7563 64.264 17.7936 64.376 17.8683C64.4973 17.9429 64.558 18.1109 64.558 18.3723V22.1243C64.558 23.0483 64.4226 23.7109 64.152 24.1123C63.872 24.5229 63.4706 24.7283 62.948 24.7283H58.16C57.5533 24.7283 57.026 24.6489 56.578 24.4903C56.1486 24.3409 55.7893 24.0843 55.5 23.7203C55.2106 23.3469 55.0053 22.8896 54.884 22.3483C54.7626 21.8069 54.702 21.1349 54.702 20.3323V17.5603C54.702 17.1683 54.716 16.8089 54.744 16.4823C54.772 16.1463 54.8186 15.8429 54.884 15.5723C55.0053 15.0309 55.2106 14.5736 55.5 14.2003C55.7613 13.8549 56.1206 13.5936 56.578 13.4163C57.026 13.2576 57.5533 13.1783 58.16 13.1783H64.18ZM69.1925 13.1783C69.2485 13.1783 69.3279 13.2063 69.4305 13.2623C69.5332 13.3183 69.5845 13.4536 69.5845 13.6683V24.2383C69.5845 24.4529 69.5332 24.5883 69.4305 24.6443C69.3279 24.7003 69.2485 24.7283 69.1925 24.7283H67.9045C67.8485 24.7283 67.7692 24.7003 67.6665 24.6443C67.5639 24.5883 67.5125 24.4529 67.5125 24.2383V13.6683C67.5125 13.4536 67.5639 13.3183 67.6665 13.2623C67.7692 13.2063 67.8485 13.1783 67.9045 13.1783H69.1925ZM79.2921 17.8263C80.0201 17.8263 80.5754 18.0829 80.9581 18.5963C81.3221 19.1003 81.5041 19.8096 81.5041 20.7243V21.9563C81.5041 22.7589 81.3268 23.4169 80.9721 23.9303C80.6081 24.4529 80.0388 24.7143 79.2641 24.7143H72.9501C72.8848 24.7143 72.8008 24.6909 72.6981 24.6443C72.5954 24.5883 72.5441 24.4529 72.5441 24.2383V23.1183C72.5441 22.9036 72.5954 22.7729 72.6981 22.7263C72.8008 22.6703 72.8848 22.6423 72.9501 22.6423H78.9281C79.0494 22.6423 79.1334 22.6236 79.1801 22.5863C79.2361 22.5489 79.2781 22.5069 79.3061 22.4603C79.3901 22.3203 79.4321 22.1243 79.4321 21.8723V20.6683C79.4321 20.5003 79.4134 20.3649 79.3761 20.2623C79.3481 20.1596 79.3108 20.0803 79.2641 20.0243C79.2174 19.9683 79.1661 19.9356 79.1101 19.9263C79.0541 19.9076 78.9981 19.8983 78.9421 19.8983H74.7421C74.5928 19.8983 74.4434 19.8936 74.2941 19.8843C74.1448 19.8656 73.9954 19.8329 73.8461 19.7863C73.7061 19.7396 73.5708 19.6743 73.4401 19.5903C73.3094 19.4969 73.1881 19.3803 73.0761 19.2403C72.8988 18.9976 72.7634 18.6849 72.6701 18.3023C72.5768 17.9196 72.5301 17.4856 72.5301 17.0003V15.9363C72.5301 15.1149 72.7121 14.4523 73.0761 13.9483C73.4401 13.4349 74.0048 13.1783 74.7701 13.1783H80.8041C80.8601 13.1783 80.9394 13.2063 81.0421 13.2623C81.1448 13.3089 81.1961 13.4396 81.1961 13.6543V14.7743C81.1961 14.9889 81.1448 15.1243 81.0421 15.1803C80.9394 15.2269 80.8601 15.2503 80.8041 15.2503H75.1061C74.9848 15.2503 74.8961 15.2689 74.8401 15.3063C74.7934 15.3436 74.7561 15.3856 74.7281 15.4323C74.6534 15.5816 74.6161 15.7776 74.6161 16.0203V17.0563C74.6161 17.2243 74.6301 17.3596 74.6581 17.4623C74.6861 17.5649 74.7234 17.6443 74.7701 17.7003C74.8168 17.7563 74.8681 17.7936 74.9241 17.8123C74.9801 17.8216 75.0361 17.8263 75.0921 17.8263H79.2921ZM94.1123 13.1783C94.1776 13.1783 94.2616 13.2063 94.3643 13.2623C94.467 13.3089 94.5183 13.4396 94.5183 13.6543V14.7463C94.5183 14.8583 94.4996 14.9516 94.4623 15.0263C94.4343 15.0916 94.397 15.1429 94.3503 15.1803C94.313 15.2083 94.271 15.2269 94.2243 15.2363C94.1776 15.2456 94.1403 15.2503 94.1123 15.2503H90.5143V24.2383C90.5143 24.4529 90.463 24.5883 90.3603 24.6443C90.267 24.6909 90.1876 24.7143 90.1223 24.7143H88.8343C88.7783 24.7143 88.699 24.6909 88.5963 24.6443C88.4936 24.5883 88.4423 24.4529 88.4423 24.2383V15.2503H84.8443C84.8163 15.2503 84.779 15.2456 84.7323 15.2363C84.6856 15.2269 84.639 15.2083 84.5923 15.1803C84.555 15.1429 84.5176 15.0916 84.4803 15.0263C84.4523 14.9516 84.4383 14.8583 84.4383 14.7463V13.6543C84.4383 13.4396 84.4896 13.3089 84.5923 13.2623C84.695 13.2063 84.779 13.1783 84.8443 13.1783H94.1123ZM105.868 22.2083C105.933 22.2083 106.017 22.2363 106.12 22.2923C106.223 22.3389 106.274 22.4696 106.274 22.6843V24.2243C106.274 24.4389 106.223 24.5743 106.12 24.6303C106.017 24.6769 105.933 24.7003 105.868 24.7003H100.898C100.263 24.7003 99.7406 24.6209 99.3299 24.4623C98.8726 24.3036 98.5086 24.0469 98.2379 23.6923C97.9579 23.3283 97.7573 22.8709 97.6359 22.3203C97.5893 22.0869 97.5473 21.8303 97.5099 21.5503C97.4819 21.2703 97.4633 20.9669 97.4539 20.6403V20.5703L97.4819 18.8063C97.5099 18.7036 97.5613 18.5869 97.6359 18.4563C97.8413 18.0923 98.1586 17.8963 98.5879 17.8683L105.812 17.8543C105.868 17.8543 105.947 17.8823 106.05 17.9383C106.153 17.9849 106.204 18.1156 106.204 18.3303V19.4363C106.204 19.6509 106.153 19.7863 106.05 19.8423C105.947 19.8983 105.868 19.9263 105.812 19.9263H99.5539C99.5446 19.9263 99.5399 19.9776 99.5399 20.0803C99.5399 20.1829 99.5399 20.2996 99.5399 20.4303C99.5399 20.5796 99.5353 20.7476 99.5259 20.9343C99.5353 20.9716 99.5399 21.0136 99.5399 21.0603C99.5399 21.0976 99.5446 21.1349 99.5539 21.1723C99.5913 21.4336 99.6706 21.6436 99.7919 21.8023C99.9039 21.9423 100.044 22.0449 100.212 22.1103C100.315 22.1383 100.422 22.1616 100.534 22.1803C100.655 22.1989 100.791 22.2083 100.94 22.2083H105.868ZM105.882 13.1503C105.938 13.1503 106.017 13.1783 106.12 13.2343C106.223 13.2903 106.274 13.4256 106.274 13.6403V14.7463C106.274 14.9609 106.223 15.0963 106.12 15.1523C106.017 15.2083 105.938 15.2363 105.882 15.2363L97.8319 15.2223C97.7759 15.2223 97.6966 15.1989 97.5939 15.1523C97.5006 15.0963 97.4539 14.9609 97.4539 14.7463V13.6543C97.4539 13.4303 97.5006 13.2903 97.5939 13.2343C97.6966 13.1783 97.7759 13.1503 97.8319 13.1503H105.882ZM118.76 16.6083V16.5663V16.5243V16.6083ZM119.026 24.1123C119.082 24.1869 119.1 24.2989 119.082 24.4483C119.054 24.6349 118.946 24.7283 118.76 24.7283H117.22C117.089 24.7283 116.991 24.7003 116.926 24.6443C116.898 24.6256 116.87 24.6023 116.842 24.5743C116.823 24.5369 116.8 24.4949 116.772 24.4483L114.238 19.9543H111.284V24.2383C111.284 24.4529 111.232 24.5883 111.13 24.6443C111.036 24.7003 110.957 24.7283 110.892 24.7283H109.618C109.552 24.7283 109.468 24.7003 109.366 24.6443C109.263 24.5883 109.212 24.4529 109.212 24.2383V18.3583C109.212 18.1436 109.263 18.0129 109.366 17.9663C109.468 17.9103 109.552 17.8823 109.618 17.8823H115.708C116.062 17.8823 116.31 17.7796 116.45 17.5743C116.599 17.3689 116.674 17.0329 116.674 16.5663C116.674 16.0996 116.599 15.7636 116.45 15.5583C116.31 15.3529 116.062 15.2503 115.708 15.2503H109.618C109.552 15.2503 109.468 15.2269 109.366 15.1803C109.263 15.1243 109.212 14.9889 109.212 14.7743V13.6683C109.212 13.4443 109.263 13.3089 109.366 13.2623C109.468 13.2063 109.552 13.1783 109.618 13.1783H116.072C117.033 13.1783 117.724 13.4769 118.144 14.0743C118.545 14.6529 118.75 15.4836 118.76 16.5663C118.75 17.6489 118.545 18.4796 118.144 19.0583C117.789 19.5436 117.266 19.8283 116.576 19.9123L119.026 24.1123Z" fill="white"/>
<defs>
<linearGradient id="paint0_linear_538_108" x1="73.7143" y1="41.7143" x2="76.5714" y2="-1.9712e-06" gradientUnits="userSpaceOnUse">
<stop stop-color="#6E8AED"/>
<stop offset="1" stop-color="#6E8AED" stop-opacity="0"/>
</linearGradient>
</defs>
</svg>
