<svg width="64" height="162" viewBox="0 0 64 162" fill="none" xmlns="http://www.w3.org/2000/svg">
<path d="M6.77148 160.397H55.9166V1.00029H6.77148V160.397Z" stroke="white" stroke-width="2"/>
<path d="M56.9141 161.397L60.9226 158.211L59.9208 0.950897L56.9141 4.57764e-05V161.397Z" fill="url(#paint0_linear_2146_1863)"/>
<path d="M38.4227 8.72754L31.6551 19.0283L24.8787 8.72754H24.7117V23.2031H26.9354V15.3369L31.6463 22.9658H31.6639L36.366 15.3457V23.2031H38.5897V8.72754H38.4227ZM31.6463 44.4316C35.6805 44.4316 38.9852 41.1445 38.9852 37.1367C38.9852 33.0938 35.6805 29.7891 31.6551 29.7891C27.6209 29.7891 24.3338 33.0938 24.3338 37.1367C24.3338 41.1445 27.6209 44.4316 31.6463 44.4316ZM31.6463 42.1816C28.8514 42.1816 26.575 39.9053 26.575 37.1191C26.575 34.3154 28.8514 32.0303 31.6463 32.0303C34.4412 32.0303 36.7352 34.3154 36.7352 37.1191C36.7352 39.9053 34.4412 42.1816 31.6463 42.1816ZM30.3631 51.0352H26.3289V65.2031H30.3631C34.8631 65.2031 37.6668 62.4873 37.6668 58.1367C37.6668 53.751 34.8631 51.0264 30.3631 51.0352ZM30.3807 62.9883H28.5438V53.2412H30.3543C33.4656 53.2412 35.4168 55.1221 35.4168 58.1279C35.4168 61.1162 33.4744 62.9883 30.3807 62.9883ZM31.6551 86.4668C34.6698 86.4668 37.0164 84.085 37.0164 80.833V72.0352H34.7752V80.8242C34.7752 82.7842 33.3778 84.2168 31.6463 84.2168C29.9149 84.2168 28.535 82.7842 28.535 80.8242V72.0352H26.3026V80.833C26.3026 84.085 28.6405 86.4668 31.6551 86.4668ZM30.0819 104.988V93.0352H27.8582V107.203H36.4012V104.988H30.0819ZM36.076 116.224V114.035H27.6385V128.203H36.076V125.988H29.8621V122.068H35.2235V119.854H29.8621V116.224H36.076ZM31.576 149.44C34.45 149.44 36.6297 147.823 36.6297 145.31C36.6297 143.077 34.8895 141.996 32.6483 141.012C30.9256 140.273 29.616 139.878 29.616 138.771C29.616 137.769 30.6531 136.96 31.9539 136.96C32.9823 136.96 33.9578 137.496 34.3973 138.454L36.0496 137.312C35.4696 135.756 33.9578 134.78 31.9364 134.78C29.3875 134.78 27.3748 136.397 27.3748 138.718C27.3748 140.941 29.2205 141.803 30.8817 142.541C32.534 143.253 34.3973 144.044 34.3973 145.354C34.3973 146.435 33.1932 147.199 31.6024 147.199C30.2401 147.199 29.0623 146.566 28.4295 145.459L26.6717 146.716C27.4803 148.351 29.2469 149.44 31.576 149.44Z" fill="white"/>
<defs>
<linearGradient id="paint0_linear_2146_1863" x1="58.9187" y1="-5.9124" x2="58.9187" y2="169.006" gradientUnits="userSpaceOnUse">
<stop offset="8e-08" stop-color="#690274"/>
<stop offset="0.440625" stop-color="#FF00BF"/>
<stop offset="0.753125" stop-color="#2DD9FF"/>
<stop offset="1" stop-color="#00CEFB"/>
</linearGradient>
</defs>
</svg>
