<svg width="115" height="338" viewBox="0 0 115 338" fill="none" xmlns="http://www.w3.org/2000/svg">
<path d="M111.971 334.555V2.49976H2.5V334.555H111.971Z" stroke="#4EDFFF" stroke-width="5"/>
<path d="M110.419 332.941V4.11353H4.05469V332.941H110.419Z" stroke="#4EDFFF" stroke-width="5"/>
<path d="M66.1336 47.0735V50.0735H72.0243L68.56 45.3092L66.1336 47.0735ZM58.8055 36.9954L57.88 34.1417L53.9484 35.4168L56.3791 38.7597L58.8055 36.9954ZM47.4305 21.886V18.886H44.4286L44.4305 21.8878L47.4305 21.886ZM47.4461 47.0735L44.4461 47.0753L44.448 50.0735H47.4461V47.0735ZM51.3992 47.0735V50.0735H54.3992V47.0735H51.3992ZM51.3992 37.3235V34.3235H48.3992V37.3235H51.3992ZM54.493 37.3235L56.9559 35.6105L56.0607 34.3235H54.493V37.3235ZM61.2742 47.0735L58.8114 48.7864L59.7065 50.0735H61.2742V47.0735ZM51.3836 34.0422H48.3836V37.0422H51.3836V34.0422ZM51.3836 25.8079V22.8079H48.3836V25.8079H51.3836ZM55.3524 34.0422L55.3721 31.0423L55.3622 31.0422H55.3524V34.0422ZM68.56 45.3092L61.2319 35.2311L56.3791 38.7597L63.7072 48.8378L68.56 45.3092ZM59.731 39.849C63.8828 38.5025 66.7899 34.5042 66.7899 29.9797H60.7899C60.7899 31.9552 59.5094 33.6132 57.88 34.1417L59.731 39.849ZM66.7899 29.9797C66.7899 23.6829 61.443 18.886 55.2586 18.886V24.886C58.4493 24.886 60.7899 27.3078 60.7899 29.9797H66.7899ZM55.2586 18.886H47.4305V24.886H55.2586V18.886ZM44.4305 21.8878L44.4461 47.0753L50.4461 47.0716L50.4305 21.8841L44.4305 21.8878ZM47.4461 50.0735H51.3992V44.0735H47.4461V50.0735ZM54.3992 47.0735V37.3235H48.3992V47.0735H54.3992ZM51.3992 40.3235H54.493V34.3235H51.3992V40.3235ZM52.0301 39.0364L58.8114 48.7864L63.7371 45.3605L56.9559 35.6105L52.0301 39.0364ZM61.2742 50.0735H66.1336V44.0735H61.2742V50.0735ZM54.3836 34.0422V25.8079H48.3836V34.0422H54.3836ZM51.3836 28.8079H55.3524V22.8079H51.3836V28.8079ZM55.3524 28.8079C55.7887 28.8079 56.1544 28.9704 56.3897 29.1849C56.6091 29.3849 56.7117 29.6181 56.7117 29.886H62.7117C62.7117 25.6306 59.0861 22.8079 55.3524 22.8079V28.8079ZM56.7117 29.886C56.7117 30.1118 56.611 30.3948 56.3472 30.6475C56.0853 30.8985 55.7356 31.0447 55.3721 31.0423L55.3326 37.0422C59.2686 37.0681 62.7117 33.9023 62.7117 29.886H56.7117ZM55.3524 31.0422H51.3836V37.0422H55.3524V31.0422ZM55.6805 88.4797C64.4928 88.4797 71.7274 81.3092 71.7274 72.511H65.7274C65.7274 77.9628 61.2119 82.4797 55.6805 82.4797V88.4797ZM71.7274 72.511C71.7274 63.6713 64.5139 56.4485 55.6961 56.4485V62.4485C61.1908 62.4485 65.7274 66.9757 65.7274 72.511H71.7274ZM55.6961 56.4485C46.8557 56.4485 39.6805 63.6783 39.6805 72.511H45.6805C45.6805 66.9686 50.1928 62.4485 55.6961 62.4485V56.4485ZM39.6805 72.511C39.6805 81.2975 46.8721 88.4797 55.6805 88.4797V82.4797C50.1764 82.4797 45.6805 77.9744 45.6805 72.511H39.6805ZM55.6805 78.4797C52.3652 78.4797 49.6649 75.7726 49.6649 72.4797H43.6649C43.6649 79.0931 49.0583 84.4797 55.6805 84.4797V78.4797ZM49.6649 72.4797C49.6649 69.1421 52.3787 66.4329 55.6805 66.4329V60.4329C49.0448 60.4329 43.6649 65.8486 43.6649 72.4797H49.6649ZM55.6805 66.4329C58.9958 66.4329 61.7274 69.1556 61.7274 72.4797H67.7274C67.7274 65.8351 62.3027 60.4329 55.6805 60.4329V66.4329ZM61.7274 72.4797C61.7274 75.7591 59.0093 78.4797 55.6805 78.4797V84.4797C62.2892 84.4797 67.7274 79.1066 67.7274 72.4797H61.7274ZM47.868 97.886V94.886H44.868V97.886H47.868ZM47.868 123.073H44.868V126.073H47.868V123.073ZM54.9305 107.995L54.9545 104.995L54.935 104.995L54.9155 104.995L54.9305 107.995ZM51.8055 108.011H48.8055V111.026L51.8205 111.011L51.8055 108.011ZM51.8055 101.73V98.7297H48.8055V101.73H51.8055ZM51.8055 119.214H48.8055V122.214H51.8055V119.214ZM51.8055 111.495L51.7962 108.495L48.8055 108.505V111.495H51.8055ZM56.868 111.48V108.48L56.8587 108.48L56.868 111.48ZM59.1961 111.886C60.2941 111.886 61.1883 111.407 61.7326 111.033C62.3475 110.61 62.9032 110.056 63.3688 109.43C64.306 108.17 65.0242 106.42 65.0242 104.355H59.0242C59.0242 105.009 58.7972 105.523 58.5546 105.849C58.4961 105.928 58.4422 105.988 58.3992 106.03C58.3552 106.074 58.331 106.09 58.3344 106.088C58.3369 106.086 58.3503 106.077 58.3754 106.063C58.4002 106.05 58.4422 106.029 58.5016 106.006C58.6046 105.966 58.8468 105.886 59.1961 105.886V111.886ZM65.0242 104.355C65.0242 99.1786 60.5624 94.886 54.743 94.886V100.886C57.6111 100.886 59.0242 102.843 59.0242 104.355H65.0242ZM54.743 94.886H47.868V100.886H54.743V94.886ZM44.868 97.886V123.073H50.868V97.886H44.868ZM47.868 126.073H57.2899V120.073H47.868V126.073ZM57.2899 126.073C64.1066 126.073 68.2117 120.753 68.2117 115.402H62.2117C62.2117 117.769 60.4731 120.073 57.2899 120.073V126.073ZM68.2117 115.402C68.2117 109.794 63.6521 105.886 59.1961 105.886V111.886C60.3964 111.886 62.2117 113.165 62.2117 115.402H68.2117ZM54.9774 104.73C55.1192 104.73 55.2331 104.786 55.2932 104.841C55.3195 104.865 55.3254 104.879 55.324 104.876C55.3209 104.869 55.3211 104.863 55.3211 104.87H61.3211C61.3211 101.168 58.1559 98.7297 54.9774 98.7297V104.73ZM55.3211 104.87C55.3211 104.915 55.3132 104.926 55.3168 104.918C55.3199 104.911 55.3238 104.908 55.3204 104.911C55.3165 104.915 55.2945 104.934 55.241 104.954C55.1878 104.973 55.0947 104.997 54.9545 104.995L54.9065 110.995C58.3257 111.023 61.3211 108.527 61.3211 104.87H55.3211ZM54.9155 104.995L51.7905 105.011L51.8205 111.011L54.9455 110.995L54.9155 104.995ZM54.8055 108.011V101.73H48.8055V108.011H54.8055ZM51.8055 104.73H54.9774V98.7297H51.8055V104.73ZM56.9305 116.214H51.8055V122.214H56.9305V116.214ZM54.8055 119.214V111.495H48.8055V119.214H54.8055ZM51.8148 114.495L56.8773 114.48L56.8587 108.48L51.7962 108.495L51.8148 114.495ZM56.868 114.48C57.6796 114.48 58.0592 114.72 58.1944 114.84C58.3297 114.959 58.3524 115.062 58.3524 115.136H64.3524C64.3524 111.239 61.0289 108.48 56.868 108.48V114.48ZM58.3524 115.136C58.3524 115.406 58.2526 115.625 58.0228 115.825C57.7616 116.052 57.3604 116.214 56.9305 116.214V122.214C60.4448 122.214 64.3524 119.611 64.3524 115.136H58.3524ZM55.6805 164.48C64.4928 164.48 71.7274 157.309 71.7274 148.511H65.7274C65.7274 153.963 61.2119 158.48 55.6805 158.48V164.48ZM71.7274 148.511C71.7274 139.671 64.5139 132.448 55.6961 132.448V138.448C61.1908 138.448 65.7274 142.976 65.7274 148.511H71.7274ZM55.6961 132.448C46.8557 132.448 39.6805 139.678 39.6805 148.511H45.6805C45.6805 142.969 50.1928 138.448 55.6961 138.448V132.448ZM39.6805 148.511C39.6805 157.298 46.8721 164.48 55.6805 164.48V158.48C50.1764 158.48 45.6805 153.974 45.6805 148.511H39.6805ZM55.6805 154.48C52.3652 154.48 49.6649 151.773 49.6649 148.48H43.6649C43.6649 155.093 49.0583 160.48 55.6805 160.48V154.48ZM49.6649 148.48C49.6649 145.142 52.3787 142.433 55.6805 142.433V136.433C49.0448 136.433 43.6649 141.849 43.6649 148.48H49.6649ZM55.6805 142.433C58.9958 142.433 61.7274 145.156 61.7274 148.48H67.7274C67.7274 141.835 62.3027 136.433 55.6805 136.433V142.433ZM61.7274 148.48C61.7274 151.759 59.0093 154.48 55.6805 154.48V160.48C62.2892 160.48 67.7274 155.107 67.7274 148.48H61.7274ZM64.4305 173.886H67.4305V170.886H64.4305V173.886ZM46.9617 173.886V170.886H43.9617V173.886H46.9617ZM46.9617 177.808H43.9617V180.808H46.9617V177.808ZM53.7117 177.808H56.7117V174.808H53.7117V177.808ZM53.7117 199.073H50.7117V202.073H53.7117V199.073ZM57.6805 199.073V202.073H60.6805V199.073H57.6805ZM57.6805 177.808V174.808H54.6805V177.808H57.6805ZM64.4305 177.808V180.808H67.4305V177.808H64.4305ZM64.4305 170.886H46.9617V176.886H64.4305V170.886ZM43.9617 173.886V177.808H49.9617V173.886H43.9617ZM46.9617 180.808H53.7117V174.808H46.9617V180.808ZM50.7117 177.808V199.073H56.7117V177.808H50.7117ZM53.7117 202.073H57.6805V196.073H53.7117V202.073ZM60.6805 199.073V177.808H54.6805V199.073H60.6805ZM57.6805 180.808H64.4305V174.808H57.6805V180.808ZM67.4305 177.808V173.886H61.4305V177.808H67.4305ZM66.1336 237.073V240.073H72.0243L68.56 235.309L66.1336 237.073ZM58.8055 226.995L57.88 224.142L53.9484 225.417L56.3791 228.76L58.8055 226.995ZM47.4305 211.886V208.886H44.4286L44.4305 211.888L47.4305 211.886ZM47.4461 237.073L44.4461 237.075L44.448 240.073H47.4461V237.073ZM51.3992 237.073V240.073H54.3992V237.073H51.3992ZM51.3992 227.323V224.323H48.3992V227.323H51.3992ZM54.493 227.323L56.9559 225.611L56.0607 224.323H54.493V227.323ZM61.2742 237.073L58.8114 238.786L59.7065 240.073H61.2742V237.073ZM51.3836 224.042H48.3836V227.042H51.3836V224.042ZM51.3836 215.808V212.808H48.3836V215.808H51.3836ZM55.3524 224.042L55.3721 221.042L55.3622 221.042H55.3524V224.042ZM68.56 235.309L61.2319 225.231L56.3791 228.76L63.7072 238.838L68.56 235.309ZM59.731 229.849C63.8828 228.503 66.7899 224.504 66.7899 219.98H60.7899C60.7899 221.955 59.5094 223.613 57.88 224.142L59.731 229.849ZM66.7899 219.98C66.7899 213.683 61.443 208.886 55.2586 208.886V214.886C58.4493 214.886 60.7899 217.308 60.7899 219.98H66.7899ZM55.2586 208.886H47.4305V214.886H55.2586V208.886ZM44.4305 211.888L44.4461 237.075L50.4461 237.072L50.4305 211.884L44.4305 211.888ZM47.4461 240.073H51.3992V234.073H47.4461V240.073ZM54.3992 237.073V227.323H48.3992V237.073H54.3992ZM51.3992 230.323H54.493V224.323H51.3992V230.323ZM52.0301 229.036L58.8114 238.786L63.7371 235.361L56.9559 225.611L52.0301 229.036ZM61.2742 240.073H66.1336V234.073H61.2742V240.073ZM54.3836 224.042V215.808H48.3836V224.042H54.3836ZM51.3836 218.808H55.3524V212.808H51.3836V218.808ZM55.3524 218.808C55.7887 218.808 56.1544 218.97 56.3897 219.185C56.6091 219.385 56.7117 219.618 56.7117 219.886H62.7117C62.7117 215.631 59.0861 212.808 55.3524 212.808V218.808ZM56.7117 219.886C56.7117 220.112 56.611 220.395 56.3472 220.648C56.0853 220.898 55.7356 221.045 55.3721 221.042L55.3326 227.042C59.2686 227.068 62.7117 223.902 62.7117 219.886H56.7117ZM55.3524 221.042H51.3836V227.042H55.3524V221.042ZM55.6805 278.48C64.4928 278.48 71.7274 271.309 71.7274 262.511H65.7274C65.7274 267.963 61.2119 272.48 55.6805 272.48V278.48ZM71.7274 262.511C71.7274 253.671 64.5139 246.448 55.6961 246.448V252.448C61.1908 252.448 65.7274 256.976 65.7274 262.511H71.7274ZM55.6961 246.448C46.8557 246.448 39.6805 253.678 39.6805 262.511H45.6805C45.6805 256.969 50.1928 252.448 55.6961 252.448V246.448ZM39.6805 262.511C39.6805 271.298 46.8721 278.48 55.6805 278.48V272.48C50.1764 272.48 45.6805 267.974 45.6805 262.511H39.6805ZM55.6805 268.48C52.3652 268.48 49.6649 265.773 49.6649 262.48H43.6649C43.6649 269.093 49.0583 274.48 55.6805 274.48V268.48ZM49.6649 262.48C49.6649 259.142 52.3787 256.433 55.6805 256.433V250.433C49.0448 250.433 43.6649 255.849 43.6649 262.48H49.6649ZM55.6805 256.433C58.9958 256.433 61.7274 259.156 61.7274 262.48H67.7274C67.7274 255.835 62.3027 250.433 55.6805 250.433V256.433ZM61.7274 262.48C61.7274 265.759 59.0093 268.48 55.6805 268.48V274.48C62.2892 274.48 67.7274 269.107 67.7274 262.48H61.7274ZM61.8524 287.823V284.823H58.8524V287.823H61.8524ZM61.8524 304.245L59.6852 306.32L64.8524 311.718V304.245H61.8524ZM45.7742 287.448L47.9414 285.374L47.0555 284.448H45.7742V287.448ZM45.5711 287.448V284.448H42.5711V287.448H45.5711ZM45.5711 313.105H42.5711V316.105H45.5711V313.105ZM49.5242 313.105V316.105H52.5242V313.105H49.5242ZM49.5242 296.683L51.6913 294.608L46.5242 289.211V296.683H49.5242ZM65.6336 313.511L63.4665 315.586L64.3525 316.511H65.6336V313.511ZM65.8211 313.511V316.511H68.8211V313.511H65.8211ZM65.8211 287.823H68.8211V284.823H65.8211V287.823ZM58.8524 287.823V304.245H64.8524V287.823H58.8524ZM64.0196 302.171L47.9414 285.374L43.6071 289.523L59.6852 306.32L64.0196 302.171ZM45.7742 284.448H45.5711V290.448H45.7742V284.448ZM42.5711 287.448V313.105H48.5711V287.448H42.5711ZM45.5711 316.105H49.5242V310.105H45.5711V316.105ZM52.5242 313.105V296.683H46.5242V313.105H52.5242ZM47.3571 298.757L63.4665 315.586L67.8007 311.436L51.6913 294.608L47.3571 298.757ZM65.6336 316.511H65.8211V310.511H65.6336V316.511ZM68.8211 313.511V287.823H62.8211V313.511H68.8211ZM65.8211 284.823H61.8524V290.823H65.8211V284.823Z" fill="#6EF6FF"/>
</svg>
