<svg width="99" height="99" viewBox="0 0 99 99" fill="none" xmlns="http://www.w3.org/2000/svg">
<mask id="mask0_1846_1581" style="mask-type:alpha" maskUnits="userSpaceOnUse" x="0" y="0" width="99" height="99">
<circle cx="49.489" cy="49.49" r="49.0066" fill="#D9D9D9"/>
</mask>
<g mask="url(#mask0_1846_1581)">
<circle cx="49.489" cy="49.49" r="49.0066" fill="#4EDFFF"/>
<circle cx="49.489" cy="49.49" r="49.0066" fill="url(#paint0_linear_1846_1581)"/>
<circle cx="49.489" cy="49.49" r="49.0066" fill="url(#paint1_linear_1846_1581)" fill-opacity="0.5"/>
<g filter="url(#filter0_f_1846_1581)">
<path d="M30.0765 80.8503C51.687 86.6018 65.069 85.6881 76.8615 55.8125C76.8615 55.8125 77.2799 42.6088 76.0045 34.9709C74.7291 27.333 88.1785 44.3368 84.6476 62.3592C79.4503 86.375 54.6098 98.6903 30.0765 80.8503Z" fill="#12B8FF"/>
</g>
<g filter="url(#filter1_f_1846_1581)">
<ellipse cx="27.4366" cy="52.1853" rx="36.755" ry="35.5298" fill="#84E9FF"/>
</g>
<g opacity="0.8" filter="url(#filter2_f_1846_1581)">
<path d="M38.4621 46.5496L31.1111 37.7284C26.2952 41.395 25.1033 43.699 22.0449 49.9801L32.884 58.3112C34.5452 54.0495 35.2767 50.5231 38.4621 46.5496Z" fill="white"/>
</g>
<g filter="url(#filter3_f_1846_1581)">
<path d="M94.5507 41.5908C92.1922 24.5362 85.1941 11.3417 66.6406 8.11389C73.9159 13.9268 77.1599 17.6624 79.5013 26.2912C86.9913 30.0475 89.6645 34.2528 94.5507 41.5908Z" fill="url(#paint2_linear_1846_1581)"/>
</g>
<g filter="url(#filter4_f_1846_1581)">
<path d="M50.7133 2.19853C29.1504 0.728293 11.0179 12.4899 3.42188 32.8277L7.83247 37.9733C11.998 27.1919 16.1636 20.0859 29.6404 18.1256C34.5411 7.34418 38.2665 5.8262 50.7133 2.19853Z" fill="url(#paint3_linear_1846_1581)" fill-opacity="0.8"/>
</g>
</g>
<defs>
<filter id="filter0_f_1846_1581" x="5.07617" y="8.09583" width="105.164" height="106.228" filterUnits="userSpaceOnUse" color-interpolation-filters="sRGB">
<feFlood flood-opacity="0" result="BackgroundImageFix"/>
<feBlend mode="normal" in="SourceGraphic" in2="BackgroundImageFix" result="shape"/>
<feGaussianBlur stdDeviation="12.5" result="effect1_foregroundBlur_1846_1581"/>
</filter>
<filter id="filter1_f_1846_1581" x="-59.3184" y="-33.3445" width="173.51" height="171.06" filterUnits="userSpaceOnUse" color-interpolation-filters="sRGB">
<feFlood flood-opacity="0" result="BackgroundImageFix"/>
<feBlend mode="normal" in="SourceGraphic" in2="BackgroundImageFix" result="shape"/>
<feGaussianBlur stdDeviation="25" result="effect1_foregroundBlur_1846_1581"/>
</filter>
<filter id="filter2_f_1846_1581" x="21.0449" y="36.7284" width="18.418" height="22.5828" filterUnits="userSpaceOnUse" color-interpolation-filters="sRGB">
<feFlood flood-opacity="0" result="BackgroundImageFix"/>
<feBlend mode="normal" in="SourceGraphic" in2="BackgroundImageFix" result="shape"/>
<feGaussianBlur stdDeviation="0.5" result="effect1_foregroundBlur_1846_1581"/>
</filter>
<filter id="filter3_f_1846_1581" x="65.6406" y="7.11389" width="29.9102" height="35.4769" filterUnits="userSpaceOnUse" color-interpolation-filters="sRGB">
<feFlood flood-opacity="0" result="BackgroundImageFix"/>
<feBlend mode="normal" in="SourceGraphic" in2="BackgroundImageFix" result="shape"/>
<feGaussianBlur stdDeviation="0.5" result="effect1_foregroundBlur_1846_1581"/>
</filter>
<filter id="filter4_f_1846_1581" x="2.42188" y="1.0752" width="49.291" height="37.8981" filterUnits="userSpaceOnUse" color-interpolation-filters="sRGB">
<feFlood flood-opacity="0" result="BackgroundImageFix"/>
<feBlend mode="normal" in="SourceGraphic" in2="BackgroundImageFix" result="shape"/>
<feGaussianBlur stdDeviation="0.5" result="effect1_foregroundBlur_1846_1581"/>
</filter>
<linearGradient id="paint0_linear_1846_1581" x1="131.82" y1="70.3178" x2="21.5553" y2="54.8808" gradientUnits="userSpaceOnUse">
<stop stop-color="white"/>
<stop offset="1" stop-color="#013DB6" stop-opacity="0"/>
</linearGradient>
<linearGradient id="paint1_linear_1846_1581" x1="86.489" y1="-17.404" x2="22.5354" y2="98.4966" gradientUnits="userSpaceOnUse">
<stop stop-color="white"/>
<stop offset="1" stop-color="#0F47B9" stop-opacity="0"/>
</linearGradient>
<linearGradient id="paint2_linear_1846_1581" x1="91.4604" y1="11.7626" x2="68.2739" y2="28.4749" gradientUnits="userSpaceOnUse">
<stop offset="0.262704" stop-color="white"/>
<stop offset="1" stop-color="#2ED9FF"/>
</linearGradient>
<linearGradient id="paint3_linear_1846_1581" x1="21.7994" y1="5.87399" x2="37.7265" y2="28.6621" gradientUnits="userSpaceOnUse">
<stop stop-color="white"/>
<stop offset="1" stop-color="#4EDFFF"/>
</linearGradient>
</defs>
</svg>
