<svg width="71" height="184" viewBox="0 0 71 184" fill="none" xmlns="http://www.w3.org/2000/svg">
<path d="M69.2995 10.4553L44.4579 2.22433C43.8623 17.4661 39.8299 33.2917 35.8983 45.4242C33.8508 51.7426 31.8238 57.0803 30.3078 60.8403C29.5496 62.7206 28.9189 64.2074 28.4769 65.2259C28.2558 65.7352 28.0819 66.1275 27.9628 66.3935C27.9572 66.4061 27.9516 66.4184 27.9462 66.4305C28.7922 72.2066 28.2819 79.3105 27.0781 86.664C25.8425 94.2118 23.8589 102.122 21.7697 109.302C19.6796 116.485 17.4776 122.958 15.7986 127.634C14.9589 129.973 14.2494 131.863 13.7493 133.171C13.6338 133.473 13.5295 133.743 13.4373 133.982L40.2302 145.49L69.2995 10.4553Z" fill="url(#paint0_linear_2146_1885)" fill-opacity="0.3" stroke="#4EDFFF" stroke-width="2.7"/>
<path d="M0 182.688L1.51084 183.06L43.1577 0.372711L41.6469 -6.10352e-05L0 182.688Z" fill="#00D1FF"/>
<path d="M60.4007 18.4096L53.2401 27.6221L51.2771 16.1695L48.726 15.5431L51.8494 32.8514L52.0107 32.891L62.9708 19.0407L60.4007 18.4096ZM41.8142 55.9487L42.0323 56.0023L48.1992 47.7424L49.8092 57.9117L50.0273 57.9653L58.7445 43.7453L56.1554 43.1095L50.9701 51.8316L49.6682 42.2005L49.5734 42.1772L43.8737 50.0993L43.3995 39.9775L40.8104 39.3418L41.8142 55.9487ZM44.5372 82.2088L47.1358 82.8468L43.8511 65.4989L43.7089 65.4639L32.6159 79.2817L35.2145 79.9197L36.8392 77.855L44.0755 79.6318L44.5372 82.2088ZM38.2837 76.0276L42.4723 70.721L43.6611 77.3479L38.2837 76.0276ZM40.1402 106.871L37.223 99.6693C39.1199 99.5317 40.8204 98.1292 41.314 96.1588C41.9951 93.4401 40.2103 90.679 37.3652 89.9804L32.6137 88.8138L28.7974 104.086L31.1968 104.675L32.6778 98.7644L34.5556 99.2255L37.1907 106.147L40.1402 106.871ZM33.1667 96.7728L34.4174 91.7806L36.8264 92.3721C38.249 92.7214 39.2089 94.0733 38.8529 95.4942C38.5112 96.8583 37.0148 97.7277 35.5756 97.3643L33.1667 96.7728ZM22.3518 128.246L33.1066 130.887L33.7047 128.5L26.7814 126.8L36.9324 115.616L26.1776 112.976L25.5819 115.353L32.5146 117.056L22.3518 128.246Z" fill="white"/>
<defs>
<linearGradient id="paint0_linear_2146_1885" x1="72.7335" y1="3.21177" x2="2.3119" y2="154.242" gradientUnits="userSpaceOnUse">
<stop stop-color="#370075"/>
<stop offset="0.581963" stop-color="#370075"/>
<stop offset="1" stop-color="#9A00B8"/>
</linearGradient>
</defs>
</svg>
