<svg width="100%" height="100%" viewBox="0 0 199 71" fill="none" xmlns="http://www.w3.org/2000/svg">
<path d="M5.66667 68C5.66667 66.5272 4.47276 65.3333 3 65.3333C1.52724 65.3333 0.333328 66.5272 0.333328 68C0.333328 69.4728 1.52724 70.6667 3 70.6667C4.47276 70.6667 5.66667 69.4728 5.66667 68ZM3 1V0.5H2.5V1H3ZM82.4373 1H82.9373V0.5H82.4373V1ZM49.114 7.95226C49.114 6.4795 47.9201 5.28559 46.4474 5.28559C44.9746 5.28559 43.7807 6.4795 43.7807 7.95226C43.7807 9.42502 44.9746 10.6189 46.4474 10.6189C47.9201 10.6189 49.114 9.42502 49.114 7.95226ZM179.389 17.8918C179.389 16.4191 178.195 15.2252 176.722 15.2252C175.25 15.2252 174.056 16.4191 174.056 17.8918C174.056 19.3646 175.25 20.5585 176.722 20.5585C178.195 20.5585 179.389 19.3646 179.389 17.8918ZM92.3001 1V0.5H91.8001V1H92.3001ZM158.477 5.44199L158.175 5.84077L158.309 5.94199H158.477V5.44199ZM152.604 1L152.905 0.601212L152.772 0.5H152.604V1ZM198.667 5.44199C198.667 3.96923 197.473 2.77532 196 2.77532C194.527 2.77532 193.333 3.96923 193.333 5.44199C193.333 6.91475 194.527 8.10865 196 8.10865C197.473 8.10865 198.667 6.91475 198.667 5.44199ZM92.3001 7.95226H91.8001V8.45945L92.3072 8.45221L92.3001 7.95226ZM143.912 7.216L144.208 6.81273L144.073 6.71366L143.905 6.71605L143.912 7.216ZM158.477 17.8918L158.181 18.2951L158.313 18.3918H158.477V17.8918ZM82.4373 7.95226V8.45226H82.9373V7.95226H82.4373ZM3.5 68L3.5 1H2.5L2.5 68H3.5ZM3 1.5L68.3477 1.5V0.5L3 0.5V1.5ZM68.3477 1.5H82.4373V0.5H68.3477V1.5ZM92.3001 1.5H101.599V0.5H92.3001V1.5ZM101.599 1.5L142.741 1.5V0.5L101.599 0.5V1.5ZM142.741 1.5H152.604V0.5H142.741V1.5ZM152.302 1.39879L158.175 5.84077L158.779 5.0432L152.905 0.601212L152.302 1.39879ZM158.477 5.94199L196 5.94199V4.94199L158.477 4.94199V5.94199ZM92.8001 7.95226L92.8001 1H91.8001L91.8001 7.95226H92.8001ZM143.905 6.71605L92.2929 7.45231L92.3072 8.45221L143.92 7.71595L143.905 6.71605ZM176.722 17.3918L158.477 17.3918V18.3918L176.722 18.3918V17.3918ZM158.773 17.4886L144.208 6.81273L143.617 7.61927L158.181 18.2951L158.773 17.4886ZM81.9373 1L81.9373 7.95226H82.9373L82.9373 1H81.9373ZM82.4373 7.45226L46.4474 7.45226V8.45226L82.4373 8.45226V7.45226Z" fill="url(#paint0_linear_943_1541)"/>
<defs>
<linearGradient id="paint0_linear_943_1541" x1="7.9169" y1="23.9503" x2="214.15" y2="23.0563" gradientUnits="userSpaceOnUse">
<stop stop-color="#4EDFFF"/>
<stop offset="1" stop-color="#FF00BF"/>
</linearGradient>
</defs>
</svg>
