<svg width="193" height="70" viewBox="0 0 193 70" fill="none" xmlns="http://www.w3.org/2000/svg">
<path d="M187.333 3C187.333 4.47276 188.527 5.66667 190 5.66667C191.473 5.66667 192.667 4.47276 192.667 3C192.667 1.52724 191.473 0.333333 190 0.333333C188.527 0.333333 187.333 1.52724 187.333 3ZM190 69V69.5H190.5V69H190ZM113.032 69L112.658 68.6684L111.921 69.5H113.032V69ZM137.778 38.0625C137.778 39.5353 138.972 40.7292 140.445 40.7292C141.918 40.7292 143.112 39.5353 143.112 38.0625C143.112 36.5897 141.918 35.3958 140.445 35.3958C138.972 35.3958 137.778 36.5897 137.778 38.0625ZM137.778 12.4875C137.778 13.9603 138.972 15.1542 140.445 15.1542C141.918 15.1542 143.112 13.9603 143.112 12.4875C143.112 11.0147 141.918 9.82083 140.445 9.82083C138.972 9.82083 137.778 11.0147 137.778 12.4875ZM103.476 69V69.5H103.702L103.852 69.33L103.476 69ZM0.333333 53.2384C0.333333 54.7112 1.52724 55.9051 3 55.9051C4.47276 55.9051 5.66667 54.7112 5.66667 53.2384C5.66667 51.7656 4.47276 50.5717 3 50.5717C1.52724 50.5717 0.333333 51.7656 0.333333 53.2384ZM45.0471 69L44.7179 69.3764L44.8592 69.5H45.0471V69ZM0.333333 64.0227C0.333333 65.4954 1.52724 66.6893 3 66.6893C4.47276 66.6893 5.66667 65.4954 5.66667 64.0227C5.66667 62.5499 4.47276 61.356 3 61.356C1.52724 61.356 0.333333 62.5499 0.333333 64.0227ZM27.0269 53.2384L27.3561 52.862L27.2147 52.7384H27.0269V53.2384ZM39.3565 64.0227L39.6857 63.6463L39.5443 63.5227H39.3565V64.0227ZM140.445 26.925L140.821 27.255L140.945 27.1135V26.925H140.445ZM189.5 3V69H190.5V3H189.5ZM190 68.5H126.684V69.5H190V68.5ZM126.684 68.5H113.032V69.5H126.684V68.5ZM113.406 69.3316L140.819 38.3941L140.071 37.7309L112.658 68.6684L113.406 69.3316ZM103.476 68.5H94.466V69.5H103.476V68.5ZM94.466 68.5H54.6032V69.5H94.466V68.5ZM54.6032 68.5H45.0471V69.5H54.6032V68.5ZM45.3762 68.6236L27.3561 52.862L26.6977 53.6147L44.7179 69.3764L45.3762 68.6236ZM27.0269 52.7384H3V53.7384H27.0269V52.7384ZM45.3762 68.6236L39.6857 63.6463L39.0273 64.399L44.7179 69.3764L45.3762 68.6236ZM39.3565 63.5227H3V64.5227H39.3565V63.5227ZM139.945 12.4875V26.925H140.945V12.4875H139.945ZM140.069 26.595L103.1 68.67L103.852 69.33L140.821 27.255L140.069 26.595Z" fill="url(#paint0_linear_943_1542)"/>
<defs>
<linearGradient id="paint0_linear_943_1542" x1="185.236" y1="43.2837" x2="-14.5871" y2="44.0327" gradientUnits="userSpaceOnUse">
<stop stop-color="#4EDFFF"/>
<stop offset="1" stop-color="#FF00BF"/>
</linearGradient>
</defs>
</svg>
