<svg width="203" height="51" viewBox="0 0 203 51" fill="none" xmlns="http://www.w3.org/2000/svg">
<path fill-rule="evenodd" clip-rule="evenodd" d="M200.913 0H200.309V2.38577L202.729 2.38577V2.98225L199.703 2.98225L199.703 2.38591V0H0V16.7014H1.81548V18.4908H0V19.6837H1.21029V18.491H1.81593V19.6839H1.81548V21.4731H0V39.3L12.1194 51H93.3194V46.2H109.681V51H184.467L184.099 50.6377L202.665 32.3388L203 32.6693V0H202.729V1.78943H200.913V0ZM203 35.3824L187.155 51H190.881L203 39.3V35.3824ZM149.475 49.5078H150.08V50.7008H149.475V49.5078ZM152.501 47.7183H150.685V50.7007H152.501V47.7183ZM147.054 47.7183H148.87V50.7007H147.054V47.7183Z" fill="url(#paint0_linear_510_122)"/>
<defs>
<linearGradient id="paint0_linear_510_122" x1="101.5" y1="0" x2="101.5" y2="51" gradientUnits="userSpaceOnUse">
<stop stop-color="#FF00BF" stop-opacity="0.93"/>
<stop offset="1" stop-color="#59B5FF" stop-opacity="0.83"/>
</linearGradient>
</defs>
</svg>
