<svg width="100%" height="100%" viewBox="0 0 297 110" fill="none" xmlns="http://www.w3.org/2000/svg">
<path fill-rule="evenodd" clip-rule="evenodd" d="M294.713 2H293.831V5.60205L296.763 5.60205V4.70169H294.713V2ZM296.763 6.50262H292.949V5.60205L292.949 2H1.76257V27.2158H4.40972V29.9175H1.76257V31.7186H3.52747V29.9177H4.40985V31.7188H4.40972V34.4202H1.76257V61.3353L19.3745 79H137.375V71.7529H161.151V79H270.733L270.197 78.453L296.763 51.3397V6.50262ZM296.763 56.4341L274.652 79H279.151L296.763 61.3353V56.4341ZM219.711 76.7471H220.593V78.5482H219.711V76.7471ZM224.123 74.0453H221.476V78.5481H224.123V74.0453ZM216.182 74.0453H218.829V78.5481H216.182V74.0453Z" fill="#D03CAB"/>
<path fill-rule="evenodd" clip-rule="evenodd" d="M218.097 74.7471H217.217V76.5482H218.097V74.7471Z" fill="url(#paint0_linear_434_160)"/>
<defs>
<linearGradient id="paint0_linear_434_160" x1="147.5" y1="3.79142e-06" x2="147.5" y2="77" gradientUnits="userSpaceOnUse">
<stop stop-color="#59B5FF" stop-opacity="0"/>
<stop offset="0.744792" stop-color="#59B5FF"/>
<stop offset="1" stop-color="#59B5FF"/>
</linearGradient>
</defs>
</svg>
