<svg width="251" height="132" viewBox="0 0 251 132" fill="none" xmlns="http://www.w3.org/2000/svg">
<path d="M54.0119 31.688H40.1799C38.5079 31.688 37.0639 31.916 35.8859 32.334C34.6699 32.79 33.6819 33.512 32.9599 34.462C32.1999 35.412 31.6299 36.666 31.2879 38.186C30.9459 39.668 30.7939 41.492 30.7939 43.582V51.106C30.7939 53.234 30.9459 55.058 31.2879 56.578C31.6299 58.06 32.1999 59.314 32.9599 60.302C33.7199 61.252 34.7079 61.974 35.8859 62.392C37.0639 62.81 38.5079 63.038 40.1799 63.038H54.0119C54.3159 63.038 55.0759 62.886 55.0759 61.708V58.706C55.0759 57.528 54.3159 57.376 54.0119 57.376H40.3699C39.5719 57.376 38.8879 57.3 38.3939 57.11C37.8999 56.958 37.5579 56.692 37.2539 56.274C36.9499 55.894 36.7599 55.324 36.6079 54.602C36.4939 53.842 36.4179 52.892 36.4179 51.752V42.898C36.4179 41.758 36.4939 40.808 36.6079 40.086C36.7599 39.364 36.9499 38.832 37.2539 38.414C37.5579 37.996 37.8999 37.73 38.3939 37.578C38.8879 37.388 39.5719 37.312 40.3699 37.312H54.0119C54.3159 37.312 55.0759 37.16 55.0759 35.944V33.018C55.0759 31.84 54.3159 31.688 54.0119 31.688ZM88.92 34.462C88.16 33.512 87.172 32.79 85.956 32.334C84.778 31.916 83.334 31.688 81.662 31.688H72.39C70.718 31.688 69.312 31.916 68.134 32.334C66.918 32.79 65.93 33.512 65.17 34.462C64.448 35.412 63.878 36.666 63.536 38.186C63.194 39.668 63.042 41.454 63.042 43.582V51.106C63.042 53.234 63.194 55.058 63.536 56.54C63.878 58.06 64.448 59.314 65.17 60.264C65.93 61.252 66.918 61.974 68.134 62.392C69.274 62.81 70.718 63.038 72.39 63.038H81.662C83.334 63.038 84.778 62.81 85.956 62.392C87.172 61.974 88.16 61.252 88.92 60.302C89.68 59.314 90.212 58.06 90.554 56.54C90.858 55.058 91.048 53.234 91.048 51.106V43.582C91.048 41.492 90.858 39.668 90.554 38.186C90.212 36.666 89.68 35.412 88.92 34.462ZM85.386 42.936V51.79C85.386 52.892 85.348 53.842 85.196 54.602C85.082 55.286 84.854 55.894 84.55 56.274C84.284 56.692 83.904 56.958 83.41 57.11C82.916 57.3 82.27 57.376 81.472 57.376H72.58C71.782 57.376 71.136 57.3 70.642 57.11C70.148 56.958 69.768 56.692 69.502 56.274C69.198 55.894 69.008 55.286 68.856 54.602C68.742 53.842 68.666 52.892 68.666 51.79V42.936C68.666 41.834 68.742 40.884 68.856 40.124C69.008 39.402 69.198 38.832 69.502 38.414C69.768 38.034 70.148 37.768 70.642 37.578C71.136 37.426 71.782 37.312 72.58 37.312H81.472C82.27 37.312 82.916 37.426 83.41 37.578C83.904 37.768 84.284 38.034 84.55 38.414C84.854 38.832 85.082 39.402 85.196 40.124C85.348 40.884 85.386 41.834 85.386 42.936ZM130.768 31.688H127.348C126.816 31.688 126.398 31.726 126.018 31.84C125.638 31.954 125.296 32.144 124.992 32.41C124.726 32.714 124.46 33.056 124.232 33.512C124.004 33.968 123.814 34.538 123.586 35.26L116.86 52.056C116.822 52.208 116.784 52.208 116.746 52.208H116.366C116.366 52.208 116.29 52.208 116.252 52.056L109.564 35.26C109.336 34.538 109.108 33.968 108.918 33.512C108.69 33.056 108.424 32.714 108.158 32.41C107.854 32.144 107.474 31.954 107.094 31.84C106.714 31.726 106.258 31.688 105.764 31.688H102.268C100.976 31.688 100.102 32.106 99.646 32.904C99.228 33.626 99.038 34.842 99.038 36.59V61.708C99.038 62.886 99.798 63.038 100.14 63.038H103.408C103.75 63.038 104.472 62.886 104.472 61.708V38.87C104.472 38.832 104.472 38.794 104.472 38.794H104.662C104.7 38.794 104.738 38.794 104.776 38.908L111.274 54.982C111.54 55.78 111.806 56.464 112.072 57.034C112.376 57.604 112.68 58.06 112.984 58.44C113.364 58.82 113.744 59.124 114.2 59.276C114.656 59.428 115.15 59.504 115.72 59.504H117.278C117.848 59.504 118.38 59.428 118.798 59.276C119.254 59.124 119.672 58.82 120.014 58.44C120.318 58.06 120.66 57.604 120.926 57.034C121.192 56.464 121.458 55.78 121.724 54.982L128.26 38.87C128.26 38.794 128.298 38.794 128.336 38.794H128.526C128.526 38.794 128.526 38.832 128.526 38.87V61.708C128.526 62.886 129.286 63.038 129.59 63.038H132.858C133.2 63.038 133.96 62.886 133.96 61.708V36.59C133.96 34.842 133.77 33.626 133.352 32.904C132.896 32.106 132.022 31.688 130.768 31.688ZM146.496 31.688H143C142.696 31.688 141.936 31.84 141.936 33.018V61.708C141.936 62.886 142.696 63.038 143 63.038H146.496C146.8 63.038 147.56 62.886 147.56 61.708V33.018C147.56 31.84 146.8 31.688 146.496 31.688ZM182.46 31.688H179.078C178.736 31.688 178.014 31.802 178.014 33.018V55.856C178.014 55.894 178.014 55.894 178.014 55.932H177.824C177.786 55.932 177.748 55.932 177.71 55.818L165.702 34.462C165.398 33.892 165.132 33.436 164.866 33.094C164.6 32.714 164.334 32.41 164.068 32.22C163.764 31.992 163.422 31.84 163.004 31.764C162.624 31.726 162.168 31.688 161.674 31.688H158.824C157.722 31.688 156.886 32.068 156.354 32.752C155.822 33.474 155.556 34.728 155.556 36.59V61.708C155.556 62.886 156.316 63.038 156.658 63.038H160.04C160.382 63.038 161.104 62.886 161.104 61.708V38.87C161.104 38.832 161.104 38.794 161.104 38.794H161.294C161.294 38.794 161.332 38.794 161.408 38.908L173.454 60.264C173.758 60.872 174.062 61.328 174.328 61.67C174.594 62.05 174.86 62.316 175.164 62.506C175.468 62.734 175.81 62.848 176.19 62.924C176.532 63 176.95 63.038 177.482 63.038H180.256C181.358 63.038 182.194 62.658 182.726 61.936C183.258 61.252 183.524 59.998 183.524 58.136V33.018C183.524 31.802 182.764 31.688 182.46 31.688ZM217.241 31.688H200.901C199.229 31.688 197.785 31.916 196.607 32.334C195.429 32.79 194.403 33.512 193.681 34.462C192.921 35.45 192.351 36.666 192.009 38.186C191.667 39.668 191.515 41.492 191.515 43.582V51.106C191.515 53.234 191.667 55.058 192.009 56.578C192.351 58.06 192.921 59.314 193.681 60.302C194.441 61.252 195.429 61.974 196.607 62.392C197.785 62.81 199.229 63.038 200.901 63.038H213.897C215.303 63.038 216.405 62.468 217.165 61.366C217.887 60.302 218.267 58.516 218.267 55.97V45.786C218.267 44.342 217.431 44.114 216.937 44.114H203.485C203.181 44.114 202.421 44.266 202.421 45.482V48.37C202.421 49.624 203.181 49.738 203.485 49.738H212.947L212.985 55.058C212.985 56.236 212.795 56.73 212.643 56.958C212.453 57.262 212.149 57.376 211.731 57.376H201.091C200.293 57.376 199.609 57.3 199.115 57.11C198.621 56.958 198.279 56.692 197.975 56.274C197.709 55.894 197.481 55.324 197.367 54.602C197.215 53.842 197.139 52.892 197.139 51.752V42.936C197.139 41.796 197.215 40.846 197.367 40.086C197.481 39.402 197.709 38.832 197.975 38.414C198.279 38.034 198.621 37.768 199.115 37.578C199.609 37.426 200.293 37.312 201.091 37.312H217.241C217.545 37.312 218.305 37.198 218.305 35.982V33.018C218.305 31.84 217.545 31.688 217.241 31.688ZM62.0971 70.78H51.5971C51.0721 70.78 50.4071 70.57 50.4071 68.855V66.265C50.4071 65.635 50.5121 65.145 50.6871 64.795C50.8271 64.585 51.0371 64.34 51.6321 64.34H65.8771C66.1571 64.34 66.8571 64.235 66.8571 63.15V60.35C66.8571 59.265 66.1571 59.16 65.8771 59.16H50.7921C48.8671 59.16 47.4671 59.79 46.5571 61.085C45.6471 62.345 45.1921 64.025 45.1921 66.055V68.715C45.1921 71.13 45.6821 73.09 46.5571 74.315C47.6421 75.75 49.2521 75.96 50.7221 75.96H61.2221C61.7471 75.96 62.4471 76.17 62.4471 77.885V80.895C62.4471 81.525 62.3421 82.015 62.1321 82.365C61.9921 82.575 61.7821 82.82 61.1871 82.82H46.2421C45.9271 82.82 45.2271 82.925 45.2271 84.01V86.81C45.2271 87.895 45.9271 88 46.2421 88H62.0271C63.9521 88 65.3871 87.335 66.2971 86.04C67.1721 84.78 67.6271 83.135 67.6271 81.105V78.025C67.6271 75.75 67.1721 73.965 66.2621 72.705C65.3171 71.445 63.9171 70.78 62.0971 70.78ZM98.7976 61.715C98.0976 60.84 97.1876 60.175 96.0676 59.755C94.9826 59.37 93.6526 59.16 92.1126 59.16H83.5726C82.0326 59.16 80.7376 59.37 79.6526 59.755C78.5326 60.175 77.6226 60.84 76.9226 61.715C76.2576 62.59 75.7326 63.745 75.4176 65.145C75.1026 66.51 74.9626 68.155 74.9626 70.115V77.045C74.9626 79.005 75.1026 80.685 75.4176 82.05C75.7326 83.45 76.2576 84.605 76.9226 85.48C77.6226 86.39 78.5326 87.055 79.6526 87.44C80.7026 87.825 82.0326 88.035 83.5726 88.035H92.1126C93.6526 88.035 94.9826 87.825 96.0676 87.44C97.1876 87.055 98.0976 86.39 98.7976 85.515C99.4976 84.605 99.9876 83.45 100.303 82.05C100.583 80.685 100.758 79.005 100.758 77.045V70.115C100.758 68.19 100.583 66.51 100.303 65.145C99.9876 63.745 99.4976 62.59 98.7976 61.715ZM95.5426 69.52V77.675C95.5426 78.69 95.5076 79.565 95.3676 80.265C95.2626 80.895 95.0526 81.455 94.7726 81.805C94.5276 82.19 94.1776 82.435 93.7226 82.575C93.2676 82.75 92.6726 82.82 91.9376 82.82H83.7476C83.0126 82.82 82.4176 82.75 81.9626 82.575C81.5076 82.435 81.1576 82.19 80.9126 81.805C80.6326 81.455 80.4576 80.895 80.3176 80.265C80.2126 79.565 80.1426 78.69 80.1426 77.675V69.52C80.1426 68.505 80.2126 67.63 80.3176 66.93C80.4576 66.265 80.6326 65.74 80.9126 65.355C81.1576 65.005 81.5076 64.76 81.9626 64.585C82.4176 64.445 83.0126 64.34 83.7476 64.34H91.9376C92.6726 64.34 93.2676 64.445 93.7226 64.585C94.1776 64.76 94.5276 65.005 94.7726 65.355C95.0526 65.74 95.2626 66.265 95.3676 66.93C95.5076 67.63 95.5426 68.505 95.5426 69.52ZM131.952 61.715C131.252 60.84 130.342 60.175 129.222 59.755C128.137 59.37 126.807 59.16 125.267 59.16H116.727C115.187 59.16 113.892 59.37 112.807 59.755C111.687 60.175 110.777 60.84 110.077 61.715C109.412 62.59 108.887 63.745 108.572 65.145C108.257 66.51 108.117 68.155 108.117 70.115V77.045C108.117 79.005 108.257 80.685 108.572 82.05C108.887 83.45 109.412 84.605 110.077 85.48C110.777 86.39 111.687 87.055 112.807 87.44C113.857 87.825 115.187 88.035 116.727 88.035H125.267C126.807 88.035 128.137 87.825 129.222 87.44C130.342 87.055 131.252 86.39 131.952 85.515C132.652 84.605 133.142 83.45 133.457 82.05C133.737 80.685 133.912 79.005 133.912 77.045V70.115C133.912 68.19 133.737 66.51 133.457 65.145C133.142 63.745 132.652 62.59 131.952 61.715ZM128.697 69.52V77.675C128.697 78.69 128.662 79.565 128.522 80.265C128.417 80.895 128.207 81.455 127.927 81.805C127.682 82.19 127.332 82.435 126.877 82.575C126.422 82.75 125.827 82.82 125.092 82.82H116.902C116.167 82.82 115.572 82.75 115.117 82.575C114.662 82.435 114.312 82.19 114.067 81.805C113.787 81.455 113.612 80.895 113.472 80.265C113.367 79.565 113.297 78.69 113.297 77.675V69.52C113.297 68.505 113.367 67.63 113.472 66.93C113.612 66.265 113.787 65.74 114.067 65.355C114.312 65.005 114.662 64.76 115.117 64.585C115.572 64.445 116.167 64.34 116.902 64.34H125.092C125.827 64.34 126.422 64.445 126.877 64.585C127.332 64.76 127.682 65.005 127.927 65.355C128.207 65.74 128.417 66.265 128.522 66.93C128.662 67.63 128.697 68.505 128.697 69.52ZM166.051 59.16H162.936C162.621 59.16 161.956 59.265 161.956 60.385V81.42C161.956 81.455 161.956 81.455 161.956 81.49H161.781C161.746 81.49 161.711 81.49 161.676 81.385L150.616 61.715C150.336 61.19 150.091 60.77 149.846 60.455C149.601 60.105 149.356 59.825 149.111 59.65C148.831 59.44 148.516 59.3 148.131 59.23C147.781 59.195 147.361 59.16 146.906 59.16H144.281C143.266 59.16 142.496 59.51 142.006 60.14C141.516 60.805 141.271 61.96 141.271 63.675V86.81C141.271 87.895 141.971 88.035 142.286 88.035H145.401C145.716 88.035 146.381 87.895 146.381 86.81V65.775C146.381 65.74 146.381 65.705 146.381 65.705H146.556C146.556 65.705 146.591 65.705 146.661 65.81L157.756 85.48C158.036 86.04 158.316 86.46 158.561 86.775C158.806 87.125 159.051 87.37 159.331 87.545C159.611 87.755 159.926 87.86 160.276 87.93C160.591 88 160.976 88.035 161.466 88.035H164.021C165.036 88.035 165.806 87.685 166.296 87.02C166.786 86.39 167.031 85.235 167.031 83.52V60.385C167.031 59.265 166.331 59.16 166.051 59.16ZM178.031 82.96H175.756C174.986 82.96 174.391 83.555 174.391 84.325V86.6C174.391 87.335 174.986 87.965 175.756 87.965H178.031C178.766 87.965 179.396 87.335 179.396 86.6V84.325C179.396 83.555 178.766 82.96 178.031 82.96ZM190.37 82.96H188.095C187.325 82.96 186.73 83.555 186.73 84.325V86.6C186.73 87.335 187.325 87.965 188.095 87.965H190.37C191.105 87.965 191.735 87.335 191.735 86.6V84.325C191.735 83.555 191.105 82.96 190.37 82.96ZM202.709 82.96H200.434C199.664 82.96 199.069 83.555 199.069 84.325V86.6C199.069 87.335 199.664 87.965 200.434 87.965H202.709C203.444 87.965 204.074 87.335 204.074 86.6V84.325C204.074 83.555 203.444 82.96 202.709 82.96Z" fill="white"/>
</svg>
