<svg width="100%" height="100%" viewBox="0 0 297 110" fill="none" xmlns="http://www.w3.org/2000/svg">
<path fill-rule="evenodd" clip-rule="evenodd" d="M294.713 2H293.831V5.60205L296.763 5.60205V4.70169H294.713V2ZM296.763 6.50262H292.949V5.60205L292.949 2H1.76257V27.2158H4.40972V29.9175H1.76257V31.7186H3.52747V29.9177H4.40985V31.7188H4.40972V34.4202H1.76257V61.3353L19.3745 79H137.375V71.7529H161.151V79H270.733L270.197 78.453L296.763 51.3397V6.50262ZM296.763 56.4341L274.652 79H279.151L296.763 61.3353V56.4341ZM219.711 76.7471H220.593V78.5482H219.711V76.7471ZM224.123 74.0453H221.476V78.5481H224.123V74.0453ZM216.182 74.0453H218.829V78.5481H216.182V74.0453Z" fill="#D03CAB"/>
<path fill-rule="evenodd" clip-rule="evenodd" d="M291.968 0H291.089V3.60205L294.606 3.60205V4.50262H290.209L290.209 3.60226V0H0V25.2158H2.63826V27.9175H0V29.7186H1.75879V27.9177H2.63892V29.7188H2.63826V32.4202H0V59.3353L17.6119 77H135.612V69.7529H159.388V77H268.068L267.533 76.453L294.513 48.8252L295 49.3242V0H294.606V2.70169H291.968V0ZM295 53.4205L271.974 77H277.388L295 59.3353V53.4205ZM217.217 74.7471H218.097V76.5482H217.217V74.7471ZM221.614 72.0453H218.976V76.5481H221.614V72.0453ZM213.699 72.0453H216.337V76.5481H213.699V72.0453Z" fill="url(#paint0_linear_233_98)"/>
<path d="M82.1808 30.073H87.2568C89.2908 30.073 90.8388 30.631 91.9008 31.747C92.9808 32.863 93.5208 34.348 93.5208 36.202V43.6C93.5208 47.2 91.6128 49 87.7968 49H82.1808V30.073ZM90.5508 35.932C90.5508 34.942 90.2988 34.222 89.7948 33.772C89.3088 33.304 88.5528 33.07 87.5268 33.07H85.1508V46.273H87.3648C88.3368 46.273 89.1108 46.129 89.6868 45.841C90.2628 45.535 90.5508 44.878 90.5508 43.87V35.932ZM110.022 44.005C110.022 45.823 109.464 47.164 108.348 48.028C107.25 48.874 105.927 49.297 104.379 49.297C103.407 49.297 102.489 49.126 101.625 48.784C100.761 48.424 100.05 47.848 99.4924 47.056C98.9524 46.264 98.6824 45.247 98.6824 44.005V35.311C98.6824 33.457 99.1864 32.053 100.194 31.099C101.22 30.145 102.624 29.668 104.406 29.668C106.188 29.668 107.565 30.172 108.537 31.18C109.527 32.188 110.022 33.574 110.022 35.338V44.005ZM107.052 36.31C107.052 35.554 106.989 34.933 106.863 34.447C106.737 33.961 106.476 33.583 106.08 33.313C105.684 33.025 105.108 32.881 104.352 32.881C103.596 32.881 103.02 33.016 102.624 33.286C102.228 33.556 101.967 33.934 101.841 34.42C101.715 34.888 101.652 35.509 101.652 36.283V43.492C101.652 44.356 101.868 45.04 102.3 45.544C102.75 46.03 103.434 46.273 104.352 46.273C105.198 46.273 105.855 46.012 106.323 45.49C106.809 44.968 107.052 44.284 107.052 43.438V36.31ZM123.598 39.469L121.249 49H117.793L114.175 30.1H117.442L119.656 42.196L122.545 30.1H124.651L127.54 42.196L129.565 30.1H132.967L129.349 49H126.001L123.598 39.469ZM140.459 36.229V49H137.489V30.1H140.459L147.776 42.79V30.1H150.773V49H147.776L140.459 36.229ZM156.399 30.1H159.369V46.273H166.146V49H156.399V30.1ZM180.576 44.005C180.576 45.823 180.018 47.164 178.902 48.028C177.804 48.874 176.481 49.297 174.933 49.297C173.961 49.297 173.043 49.126 172.179 48.784C171.315 48.424 170.604 47.848 170.046 47.056C169.506 46.264 169.236 45.247 169.236 44.005V35.311C169.236 33.457 169.74 32.053 170.748 31.099C171.774 30.145 173.178 29.668 174.96 29.668C176.742 29.668 178.119 30.172 179.091 31.18C180.081 32.188 180.576 33.574 180.576 35.338V44.005ZM177.606 36.31C177.606 35.554 177.543 34.933 177.417 34.447C177.291 33.961 177.03 33.583 176.634 33.313C176.238 33.025 175.662 32.881 174.906 32.881C174.15 32.881 173.574 33.016 173.178 33.286C172.782 33.556 172.521 33.934 172.395 34.42C172.269 34.888 172.206 35.509 172.206 36.283V43.492C172.206 44.356 172.422 45.04 172.854 45.544C173.304 46.03 173.988 46.273 174.906 46.273C175.752 46.273 176.409 46.012 176.877 45.49C177.363 44.968 177.606 44.284 177.606 43.438V36.31ZM192.095 44.059H187.748L186.695 49H183.347L187.775 30.1H191.96L196.739 49H193.202L192.095 44.059ZM188.45 40.9H191.393L189.854 35.068L188.45 40.9ZM200.475 30.073H205.551C207.585 30.073 209.133 30.631 210.195 31.747C211.275 32.863 211.815 34.348 211.815 36.202V43.6C211.815 47.2 209.907 49 206.091 49H200.475V30.073ZM208.845 35.932C208.845 34.942 208.593 34.222 208.089 33.772C207.603 33.304 206.847 33.07 205.821 33.07H203.445V46.273H205.659C206.631 46.273 207.405 46.129 207.981 45.841C208.557 45.535 208.845 44.878 208.845 43.87V35.932Z" fill="white"/>
<defs>
<linearGradient id="paint0_linear_233_98" x1="147.5" y1="0" x2="147.5" y2="77" gradientUnits="userSpaceOnUse">
<stop stop-color="#59B5FF" stop-opacity="0"/>
<stop offset="0.744792" stop-color="#59B5FF"/>
<stop offset="1" stop-color="#59B5FF"/>
</linearGradient>
</defs>
</svg>
