<svg width="100%" height="100%" viewBox="0 0 202 141" fill="none" xmlns="http://www.w3.org/2000/svg">
<path d="M5.66667 138C5.66667 136.527 4.47276 135.333 3 135.333C1.52725 135.333 0.333344 136.527 0.333344 138C0.333344 139.473 1.52725 140.667 3 140.667C4.47276 140.667 5.66667 139.473 5.66667 138ZM3 1V0.5H2.5V1H3ZM83.6721 1H84.1721V0.5H83.6721V1ZM49.7894 15.2158C49.7894 13.7431 48.5955 12.5492 47.1227 12.5492C45.65 12.5492 44.4561 13.7431 44.4561 15.2158C44.4561 16.6886 45.65 17.8825 47.1227 17.8825C48.5955 17.8825 49.7894 16.6886 49.7894 15.2158ZM182.089 35.54C182.089 34.0672 180.895 32.8733 179.423 32.8733C177.95 32.8733 176.756 34.0672 176.756 35.54C176.756 37.0128 177.95 38.2067 179.423 38.2067C180.895 38.2067 182.089 37.0128 182.089 35.54ZM93.6882 1V0.5H93.1882V1H93.6882ZM160.894 10.0829L160.476 10.3573L160.624 10.5829H160.894V10.0829ZM154.929 1L155.347 0.725555L155.199 0.5H154.929V1ZM201.667 10.0829C201.667 8.61012 200.473 7.41621 199 7.41621C197.527 7.41621 196.333 8.61012 196.333 10.0829C196.333 11.5556 197.527 12.7495 199 12.7495C200.473 12.7495 201.667 11.5556 201.667 10.0829ZM93.6882 15.2158H93.1882V15.7304L93.7025 15.7156L93.6882 15.2158ZM146.103 13.7103L146.517 13.4299L146.363 13.2027L146.088 13.2105L146.103 13.7103ZM160.894 35.54L160.48 35.8205L160.629 36.04H160.894V35.54ZM83.6721 15.2158V15.7158H84.1721V15.2158H83.6721ZM3.5 138L3.5 1H2.5L2.5 138H3.5ZM3 1.5L69.3634 1.5V0.5L3 0.5V1.5ZM69.3634 1.5H83.6721V0.5H69.3634V1.5ZM93.6882 1.5H103.132V0.5H93.6882V1.5ZM103.132 1.5H144.913V0.5H103.132V1.5ZM144.913 1.5H154.929V0.5H144.913V1.5ZM154.511 1.27446L160.476 10.3573L161.312 9.80843L155.347 0.725555L154.511 1.27446ZM160.894 10.5829L199 10.5829V9.58287H160.894V10.5829ZM94.1882 15.2158V1H93.1882V15.2158H94.1882ZM146.088 13.2105L93.6738 14.716L93.7025 15.7156L146.117 14.2101L146.088 13.2105ZM179.423 35.04L160.894 35.04V36.04L179.423 36.04V35.04ZM161.308 35.2595L146.517 13.4299L145.689 13.9908L160.48 35.8205L161.308 35.2595ZM83.1721 1V15.2158H84.1721V1H83.1721ZM83.6721 14.7158H47.1227V15.7158H83.6721V14.7158Z" fill="url(#paint0_linear_510_98)"/>
<defs>
<linearGradient id="paint0_linear_510_98" x1="7.99333" y1="47.9282" x2="217.436" y2="47.4773" gradientUnits="userSpaceOnUse">
<stop stop-color="#4EDFFF"/>
<stop offset="1" stop-color="#FF00BF"/>
</linearGradient>
</defs>
</svg>
