<svg width="100%" height="100%" viewBox="0 0 189 141" fill="none" xmlns="http://www.w3.org/2000/svg">
<path d="M183.333 138C183.333 136.527 184.527 135.333 186 135.333C187.473 135.333 188.667 136.527 188.667 138C188.667 139.473 187.473 140.667 186 140.667C184.527 140.667 183.333 139.473 183.333 138ZM186 1V0.5H186.5V1H186ZM110.679 1H110.179V0.5H110.679V1ZM142.137 15.2158C142.137 13.7431 143.331 12.5492 144.804 12.5492C146.277 12.5492 147.47 13.7431 147.47 15.2158C147.47 16.6886 146.277 17.8825 144.804 17.8825C143.331 17.8825 142.137 16.6886 142.137 15.2158ZM18.6121 35.54C18.6121 34.0672 19.806 32.8733 21.2788 32.8733C22.7515 32.8733 23.9454 34.0672 23.9454 35.54C23.9454 37.0128 22.7515 38.2067 21.2788 38.2067C19.806 38.2067 18.6121 37.0128 18.6121 35.54ZM101.327 1V0.5H101.827V1H101.327ZM38.5788 10.0829L39.0051 10.3442L38.8587 10.5829H38.5788V10.0829ZM44.1477 1L43.7214 0.738663L43.8677 0.5H44.1477V1ZM0.333333 10.0829C0.333333 8.61012 1.52724 7.41621 3 7.41621C4.47276 7.41621 5.66667 8.61012 5.66667 10.0829C5.66667 11.5556 4.47276 12.7495 3 12.7495C1.52724 12.7495 0.333333 11.5556 0.333333 10.0829ZM101.327 15.2158H101.827V15.7314L101.311 15.7156L101.327 15.2158ZM52.3888 13.7103L51.9662 13.443L52.1188 13.2018L52.4042 13.2106L52.3888 13.7103ZM38.5788 35.54L39.0014 35.8073L38.8541 36.04H38.5788V35.54ZM110.679 15.2158V15.7158H110.179V15.2158H110.679ZM185.5 138L185.5 1H186.5L186.5 138H185.5ZM186 1.5L124.038 1.5V0.5L186 0.5V1.5ZM124.038 1.5H110.679V0.5H124.038V1.5ZM101.327 1.5H92.5095V0.5H101.327V1.5ZM92.5095 1.5H53.4994V0.5H92.5095V1.5ZM53.4994 1.5L44.1477 1.5V0.5L53.4994 0.5V1.5ZM44.5739 1.26135L39.0051 10.3442L38.1525 9.82153L43.7214 0.738663L44.5739 1.26135ZM38.5788 10.5829L3 10.5829V9.58287H38.5788V10.5829ZM100.827 15.2158V1H101.827V15.2158H100.827ZM52.4042 13.2106L101.342 14.7161L101.311 15.7156L52.3734 14.2101L52.4042 13.2106ZM21.2788 35.04L38.5788 35.04V36.04L21.2788 36.04V35.04ZM38.1563 35.2727L51.9662 13.443L52.8113 13.9776L39.0014 35.8073L38.1563 35.2727ZM111.179 1V15.2158H110.179V1H111.179ZM110.679 14.7158L144.804 14.7158V15.7158L110.679 15.7158V14.7158Z" fill="url(#paint0_linear_510_100)"/>
<defs>
<linearGradient id="paint0_linear_510_100" x1="181.338" y1="47.9282" x2="-14.2129" y2="47.5351" gradientUnits="userSpaceOnUse">
<stop stop-color="#4EDFFF"/>
<stop offset="1" stop-color="#FF00BF"/>
</linearGradient>
</defs>
</svg>
