<svg width="295" height="209" viewBox="0 0 295 209" fill="none" xmlns="http://www.w3.org/2000/svg">
<path d="M5.66666 206C5.66666 204.527 4.47275 203.333 3 203.333C1.52722 203.333 0.333313 204.527 0.333313 206C0.333313 207.473 1.52722 208.667 3 208.667C4.47275 208.667 5.66666 207.473 5.66666 206ZM3 1V0.5H2.5V1H3ZM121.95 1H122.45V0.5H121.95V1ZM70.7252 22.2719C70.7252 20.7991 69.5313 19.6052 68.0585 19.6052C66.5857 19.6052 65.3918 20.7991 65.3918 22.2719C65.3918 23.7446 66.5857 24.9385 68.0585 24.9385C69.5313 24.9385 70.7252 23.7446 70.7252 22.2719ZM265.8 52.6839C265.8 51.2112 264.606 50.0173 263.134 50.0173C261.661 50.0173 260.467 51.2112 260.467 52.6839C260.467 54.1567 261.661 55.3506 263.134 55.3506C264.606 55.3506 265.8 54.1567 265.8 52.6839ZM136.719 1V0.5H136.219V1H136.719ZM235.813 14.5912L235.393 14.8628L235.541 15.0912H235.813V14.5912ZM227.018 1L227.438 0.728363L227.29 0.5H227.018V1ZM294.667 14.5912C294.667 13.1184 293.473 11.9245 292 11.9245C290.527 11.9245 289.333 13.1184 289.333 14.5912C289.333 16.0639 290.527 17.2578 292 17.2578C293.473 17.2578 294.667 16.0639 294.667 14.5912ZM136.719 22.2719H136.219V22.7866L136.733 22.7716L136.719 22.2719ZM214.004 20.0191L214.419 19.7415L214.266 19.5112L213.989 19.5193L214.004 20.0191ZM235.813 52.6839L235.397 52.9616L235.545 53.1839H235.813V52.6839ZM121.95 22.2719V22.7719H122.45V22.2719H121.95ZM3.5 206L3.5 1H2.5L2.5 206H3.5ZM3 1.5L100.852 1.5V0.5L3 0.5V1.5ZM100.852 1.5H121.95V0.5H100.852V1.5ZM136.719 1.5H150.643V0.5H136.719V1.5ZM150.643 1.5L212.25 1.5V0.5L150.643 0.5V1.5ZM212.25 1.5H227.018V0.5H212.25V1.5ZM226.598 1.27162L235.393 14.8628L236.232 14.3195L227.438 0.728363L226.598 1.27162ZM235.813 15.0912L292 15.0912V14.0912L235.813 14.0912V15.0912ZM137.219 22.2719V1H136.219V22.2719H137.219ZM213.989 19.5193L136.704 21.7721L136.733 22.7716L214.018 20.5189L213.989 19.5193ZM263.134 52.1839L235.813 52.1839V53.1839L263.134 53.1839V52.1839ZM236.229 52.4063L214.419 19.7415L213.588 20.2967L235.397 52.9616L236.229 52.4063ZM121.45 1V22.2719H122.45V1H121.45ZM121.95 21.7719L68.0585 21.7719V22.7719L121.95 22.7719V21.7719Z" fill="url(#paint0_linear_220_76)"/>
<defs>
<linearGradient id="paint0_linear_220_76" x1="10.3626" y1="71.221" x2="319.183" y2="70.5658" gradientUnits="userSpaceOnUse">
<stop stop-color="#4EDFFF"/>
<stop offset="1" stop-color="#FF00BF"/>
</linearGradient>
</defs>
</svg>
