<svg width="908" height="195" viewBox="0 0 908 195" fill="none" xmlns="http://www.w3.org/2000/svg">
<g filter="url(#filter0_dddd_53_131)">
<path d="M243.789 105.677H168.342V99.4624H243.789V105.677Z" fill="white"/>
<path d="M243.789 84.7444V79.8383H434.515V84.7444H243.789Z" fill="white"/>
<path d="M368.44 91.6128V88.015H571.819V91.6128H368.44Z" fill="white"/>
<path d="M571.819 105.677V99.4624H870.326V105.677H571.819Z" fill="white"/>
<path d="M525.894 57.9248V54H749.892V57.9248H525.894Z" fill="white"/>
<path d="M615.4 72.3158V67.0827H663.667V72.3158H615.4Z" fill="white"/>
<path d="M255.973 141V135.767H545.576V141H255.973Z" fill="white"/>
<path d="M54 67.0827V72.3158H385.31V67.0827H54Z" fill="white"/>
<path d="M489.811 120.722V115.816H593.844V120.722H489.811Z" fill="white"/>
<path d="M638.362 129.88V123.665H663.667V129.88H638.362Z" fill="white"/>
<path d="M301.897 111.237V105.677H359.068V111.237H301.897Z" fill="white"/>
<path d="M452.791 123.665H329.077V120.722H452.791V123.665Z" fill="white"/>
</g>
<defs>
<filter id="filter0_dddd_53_131" x="0" y="0" width="924.326" height="195" filterUnits="userSpaceOnUse" color-interpolation-filters="sRGB">
<feFlood flood-opacity="0" result="BackgroundImageFix"/>
<feColorMatrix in="SourceAlpha" type="matrix" values="0 0 0 0 0 0 0 0 0 0 0 0 0 0 0 0 0 0 127 0" result="hardAlpha"/>
<feOffset dx="4" dy="4"/>
<feGaussianBlur stdDeviation="25"/>
<feComposite in2="hardAlpha" operator="out"/>
<feColorMatrix type="matrix" values="0 0 0 0 0.305882 0 0 0 0 0.87451 0 0 0 0 1 0 0 0 1 0"/>
<feBlend mode="normal" in2="BackgroundImageFix" result="effect1_dropShadow_53_131"/>
<feColorMatrix in="SourceAlpha" type="matrix" values="0 0 0 0 0 0 0 0 0 0 0 0 0 0 0 0 0 0 127 0" result="hardAlpha"/>
<feOffset dx="-4" dy="-4"/>
<feGaussianBlur stdDeviation="25"/>
<feComposite in2="hardAlpha" operator="out"/>
<feColorMatrix type="matrix" values="0 0 0 0 0.815686 0 0 0 0 0.235294 0 0 0 0 0.670588 0 0 0 1 0"/>
<feBlend mode="normal" in2="effect1_dropShadow_53_131" result="effect2_dropShadow_53_131"/>
<feColorMatrix in="SourceAlpha" type="matrix" values="0 0 0 0 0 0 0 0 0 0 0 0 0 0 0 0 0 0 127 0" result="hardAlpha"/>
<feOffset dx="4" dy="4"/>
<feGaussianBlur stdDeviation="10"/>
<feComposite in2="hardAlpha" operator="out"/>
<feColorMatrix type="matrix" values="0 0 0 0 0.305882 0 0 0 0 0.87451 0 0 0 0 1 0 0 0 1 0"/>
<feBlend mode="normal" in2="effect2_dropShadow_53_131" result="effect3_dropShadow_53_131"/>
<feColorMatrix in="SourceAlpha" type="matrix" values="0 0 0 0 0 0 0 0 0 0 0 0 0 0 0 0 0 0 127 0" result="hardAlpha"/>
<feOffset dx="-4" dy="-4"/>
<feGaussianBlur stdDeviation="10"/>
<feComposite in2="hardAlpha" operator="out"/>
<feColorMatrix type="matrix" values="0 0 0 0 0.815686 0 0 0 0 0.235294 0 0 0 0 0.670588 0 0 0 1 0"/>
<feBlend mode="normal" in2="effect3_dropShadow_53_131" result="effect4_dropShadow_53_131"/>
<feBlend mode="normal" in="SourceGraphic" in2="effect4_dropShadow_53_131" result="shape"/>
</filter>
</defs>
</svg>
