<svg width="295" height="209" viewBox="0 0 295 209" fill="none" xmlns="http://www.w3.org/2000/svg">
<path d="M5.66666 3C5.66666 4.47276 4.47275 5.66667 3 5.66667C1.52722 5.66667 0.333313 4.47276 0.333313 3C0.333313 1.52724 1.52722 0.333333 3 0.333333C4.47275 0.333333 5.66666 1.52724 5.66666 3ZM3 208V208.5H2.5V208H3ZM121.95 208H122.45V208.5H121.95V208ZM70.7252 186.728C70.7252 188.201 69.5313 189.395 68.0585 189.395C66.5857 189.395 65.3918 188.201 65.3918 186.728C65.3918 185.255 66.5857 184.061 68.0585 184.061C69.5313 184.061 70.7252 185.255 70.7252 186.728ZM265.8 156.316C265.8 157.789 264.606 158.983 263.134 158.983C261.661 158.983 260.467 157.789 260.467 156.316C260.467 154.843 261.661 153.649 263.134 153.649C264.606 153.649 265.8 154.843 265.8 156.316ZM136.719 208V208.5H136.219V208H136.719ZM235.813 194.409L235.393 194.137L235.541 193.909H235.813V194.409ZM227.018 208L227.438 208.272L227.29 208.5H227.018V208ZM294.667 194.409C294.667 195.882 293.473 197.076 292 197.076C290.527 197.076 289.333 195.882 289.333 194.409C289.333 192.936 290.527 191.742 292 191.742C293.473 191.742 294.667 192.936 294.667 194.409ZM136.719 186.728H136.219V186.213L136.733 186.228L136.719 186.728ZM214.004 188.981L214.419 189.259L214.266 189.489L213.989 189.481L214.004 188.981ZM235.813 156.316L235.397 156.038L235.545 155.816H235.813V156.316ZM121.95 186.728V186.228H122.45V186.728H121.95ZM3.5 3L3.5 208H2.5L2.5 3L3.5 3ZM3 207.5L100.852 207.5V208.5L3 208.5V207.5ZM100.852 207.5H121.95V208.5H100.852V207.5ZM136.719 207.5H150.643V208.5H136.719V207.5ZM150.643 207.5L212.25 207.5V208.5L150.643 208.5V207.5ZM212.25 207.5H227.018V208.5H212.25V207.5ZM226.598 207.728L235.393 194.137L236.232 194.68L227.438 208.272L226.598 207.728ZM235.813 193.909L292 193.909V194.909L235.813 194.909V193.909ZM137.219 186.728V208H136.219V186.728H137.219ZM213.989 189.481L136.704 187.228L136.733 186.228L214.018 188.481L213.989 189.481ZM263.134 156.816L235.813 156.816V155.816L263.134 155.816V156.816ZM236.229 156.594L214.419 189.259L213.588 188.703L235.397 156.038L236.229 156.594ZM121.45 208V186.728H122.45V208H121.45ZM121.95 187.228L68.0585 187.228V186.228L121.95 186.228V187.228Z" fill="url(#paint0_linear_220_77)"/>
<defs>
<linearGradient id="paint0_linear_220_77" x1="10.3626" y1="137.779" x2="319.183" y2="138.434" gradientUnits="userSpaceOnUse">
<stop stop-color="#FF00BF"/>
<stop offset="1" stop-color="#4EDFFF"/>
</linearGradient>
</defs>
</svg>
