<svg width="117" height="928" viewBox="0 0 117 928" fill="none" xmlns="http://www.w3.org/2000/svg">
<path opacity="0.4" d="M90.4334 255.278L88.9334 255.284L88.9214 252.363L91.3024 254.055L90.4334 255.278ZM113.333 271.554L114.202 270.332L114.831 270.778L114.833 271.549L113.333 271.554ZM115 746.524L116.5 746.519L116.501 746.933L116.29 747.29L115 746.524ZM92.6023 784.239L93.892 785.005L92.6023 784.239ZM90.4334 243.44L89.5143 244.625L88.9334 244.175V243.44H90.4334ZM90.4334 222.724H88.9334V219.663L91.3526 221.539L90.4334 222.724ZM113.333 240.481L114.252 239.295L114.833 239.746V240.481H113.333ZM113.333 261.196H114.833V264.257L112.414 262.382L113.333 261.196ZM113.333 207.927L114.252 206.742L114.833 207.192V207.927H113.333ZM113.333 230.123H114.833V233.342L112.369 231.271L113.333 230.123ZM90.4334 210.887L89.4686 212.035L88.9334 211.586V210.887H90.4334ZM90.4334 190.171H88.9334V187.11L91.3526 188.986L90.4334 190.171ZM90.4334 179.813L89.5143 180.998L88.9694 180.576L88.9352 179.887L90.4334 179.813ZM114.307 177.693L115.592 176.92L115.827 177.311L115.805 177.767L114.307 177.693ZM113.333 197.569L114.832 197.643L114.691 200.52L112.414 198.755L113.333 197.569ZM11.3844 913C15.8026 913 19.3844 916.582 19.3844 921C19.3844 925.418 15.8026 929 11.3844 929C6.96607 929 3.38435 925.418 3.38435 921C3.38435 916.582 6.96607 913 11.3844 913ZM8 -8C12.4183 -8 16 -4.41828 16 0C16 4.41828 12.4183 8 8 8C3.58172 8 -9.53674e-07 4.41828 -9.53674e-07 0C-9.53674e-07 -4.41828 3.58172 -8 8 -8ZM91.3024 254.055L114.202 270.332L112.464 272.777L89.5644 256.5L91.3024 254.055ZM116.29 747.29L93.892 785.005L91.3126 783.473L113.71 745.758L116.29 747.29ZM91.1023 784.245L88.9334 255.284L91.9334 255.271L94.1023 784.233L91.1023 784.245ZM88.9334 243.44V222.724H91.9334V243.44H88.9334ZM91.3526 221.539L114.252 239.295L112.414 241.666L89.5143 223.91L91.3526 221.539ZM114.833 240.481V261.196H111.833V240.481H114.833ZM112.414 262.382L89.5143 244.625L91.3526 242.255L114.252 260.011L112.414 262.382ZM114.833 207.927V230.123H111.833V207.927H114.833ZM112.369 231.271L89.4686 212.035L91.3982 209.738L114.298 228.974L112.369 231.271ZM88.9334 210.887V190.171H91.9334V210.887H88.9334ZM91.3526 188.986L114.252 206.742L112.414 209.113L89.5143 191.356L91.3526 188.986ZM88.9352 179.887L86.6777 134.323L89.674 134.174L91.9316 179.739L88.9352 179.887ZM89.4612 133.475L115.592 176.92L113.021 178.466L86.8904 135.022L89.4612 133.475ZM115.805 177.767L114.832 197.643L111.835 197.496L112.809 177.62L115.805 177.767ZM112.414 198.755L89.5143 180.998L91.3526 178.628L114.252 196.384L112.414 198.755ZM114.833 271.549L116.5 746.519L113.5 746.529L111.833 271.559L114.833 271.549ZM93.892 785.005L12.6741 921.766L10.0946 920.234L91.3126 783.473L93.892 785.005ZM86.888 135.018L6.71218 0.769109L9.28782 -0.769109L89.4637 133.479L86.888 135.018Z" fill="url(#paint0_linear_217_95)"/>
<defs>
<linearGradient id="paint0_linear_217_95" x1="-1.86194" y1="928.072" x2="137.181" y2="144.05" gradientUnits="userSpaceOnUse">
<stop stop-color="#4EDFFF"/>
<stop offset="1" stop-color="#FF00BF"/>
</linearGradient>
</defs>
</svg>
