<svg width="32" height="32" viewBox="0 0 32 32" fill="none" xmlns="http://www.w3.org/2000/svg">
<g clip-path="url(#clip0_1170_1571)">
<path d="M4 10.6663C4 11.3997 4.6 11.9997 5.33333 11.9997C6.06667 11.9997 6.66667 11.3997 6.66667 10.6663V7.99967H9.33333C10.0667 7.99967 10.6667 7.39967 10.6667 6.66634C10.6667 5.93301 10.0667 5.33301 9.33333 5.33301H6.66667V2.66634C6.66667 1.93301 6.06667 1.33301 5.33333 1.33301C4.6 1.33301 4 1.93301 4 2.66634V5.33301H1.33333C0.6 5.33301 0 5.93301 0 6.66634C0 7.39967 0.6 7.99967 1.33333 7.99967H4V10.6663Z" fill="white"/>
<path d="M17.332 22.6665C19.5412 22.6665 21.332 20.8756 21.332 18.6665C21.332 16.4574 19.5412 14.6665 17.332 14.6665C15.1229 14.6665 13.332 16.4574 13.332 18.6665C13.332 20.8756 15.1229 22.6665 17.332 22.6665Z" fill="white"/>
<path d="M28 7.99992H23.7733L22.12 6.19992C21.6267 5.65325 20.9067 5.33325 20.16 5.33325H11.6267C11.8533 5.73325 12 6.17325 12 6.66659C12 8.13325 10.8 9.33325 9.33333 9.33325H8V10.6666C8 12.1333 6.8 13.3333 5.33333 13.3333C4.84 13.3333 4.4 13.1866 4 12.9599V26.6666C4 28.1333 5.2 29.3333 6.66667 29.3333H28C29.4667 29.3333 30.6667 28.1333 30.6667 26.6666V10.6666C30.6667 9.19992 29.4667 7.99992 28 7.99992ZM17.3333 25.3333C13.6533 25.3333 10.6667 22.3466 10.6667 18.6666C10.6667 14.9866 13.6533 11.9999 17.3333 11.9999C21.0133 11.9999 24 14.9866 24 18.6666C24 22.3466 21.0133 25.3333 17.3333 25.3333Z" fill="white"/>
</g>
<defs>
<clipPath id="clip0_1170_1571">
<rect width="32" height="32" fill="white"/>
</clipPath>
</defs>
</svg>
