<svg width="80" height="80" viewBox="0 0 80 80" fill="none" xmlns="http://www.w3.org/2000/svg">
<circle cx="40" cy="40" r="40" fill="url(#paint0_radial_1170_1584)"/>
<circle cx="40.4603" cy="40.4598" r="32.1839" fill="#FD566D"/>
<circle cx="40.46" cy="40.4598" r="25.7471" fill="#D62E46"/>
<path fill-rule="evenodd" clip-rule="evenodd" d="M46.1496 36.8156C46.6 36.3652 46.6 35.635 46.1496 35.1847C45.6993 34.7343 44.9691 34.7343 44.5188 35.1847L38.6673 41.0361L36.1493 38.5181C35.6989 38.0677 34.9688 38.0677 34.5184 38.5181C34.0681 38.9684 34.0681 39.6986 34.5184 40.1489L37.8518 43.4823C38.1034 43.7339 38.4423 43.8449 38.771 43.8154C39.0307 43.7921 39.2841 43.6811 39.483 43.4822L46.1496 36.8156Z" fill="#FD566D"/>
<path d="M25.1532 40C25.1532 43.2677 25.3298 45.8148 25.7729 47.8084C26.213 49.789 26.9007 51.1518 27.8744 52.1256C28.8482 53.0993 30.211 53.787 32.1916 54.2271C34.1852 54.6702 36.7323 54.8468 40 54.8468C43.2677 54.8468 45.8148 54.6702 47.8084 54.2271C49.789 53.787 51.1518 53.0993 52.1256 52.1256C53.0993 51.1518 53.787 49.789 54.2271 47.8084C54.6702 45.8148 54.8468 43.2677 54.8468 40C54.8468 36.7323 54.6702 34.1852 54.2271 32.1916C53.787 30.211 53.0993 28.8482 52.1256 27.8744C51.1518 26.9007 49.789 26.213 47.8084 25.7729C45.8148 25.3298 43.2677 25.1532 40 25.1532C36.7323 25.1532 34.1852 25.3298 32.1916 25.7729C30.211 26.213 28.8482 26.9007 27.8744 27.8744C26.9007 28.8482 26.213 30.211 25.7729 32.1916C25.3298 34.1852 25.1532 36.7323 25.1532 40Z" stroke="#FD566D" stroke-width="2.3064" stroke-linecap="round" stroke-linejoin="round"/>
<defs>
<radialGradient id="paint0_radial_1170_1584" cx="0" cy="0" r="1" gradientUnits="userSpaceOnUse" gradientTransform="translate(40 40) rotate(90) scale(40)">
<stop offset="0.357292" stop-color="#FD566D"/>
<stop offset="1" stop-color="#FD566D" stop-opacity="0"/>
</radialGradient>
</defs>
</svg>
