<svg width="100%" height="100%" viewBox="0 0 478 91" fill="none" xmlns="http://www.w3.org/2000/svg">
<path d="M0.445312 73.4599C0.445312 75.669 2.23617 77.4599 4.44531 77.4599C6.65445 77.4599 8.44531 75.669 8.44531 73.4599C8.44531 71.2507 6.65445 69.4599 4.44531 69.4599C2.23617 69.4599 0.445312 71.2507 0.445312 73.4599ZM77.8484 73.4599V74.2099H78.5984V73.4599H77.8484ZM86.1831 73.4599H85.4331V74.2099H86.1831V73.4599ZM244.541 73.4599L245.001 72.8678L244.798 72.7099H244.541V73.4599ZM265.756 89.9531L265.296 90.5452L265.499 90.7031H265.756V89.9531ZM396.837 89.9531V90.7031H397.587V89.9531H396.837ZM396.837 17.1082H397.587V16.3582H396.837V17.1082ZM265.756 17.1082L265.312 17.7127L265.511 17.8582H265.756V17.1082ZM244.541 1.53125L244.985 0.926704L244.787 0.78125H244.541V1.53125ZM86.1831 1.53125V0.78125H85.4331V1.53125H86.1831ZM404.955 17.1082V16.3582H404.205V17.1082H404.955ZM469.107 17.1082C469.107 19.3173 470.898 21.1082 473.107 21.1082C475.316 21.1082 477.107 19.3173 477.107 17.1082C477.107 14.899 475.316 13.1082 473.107 13.1082C470.898 13.1082 469.107 14.899 469.107 17.1082ZM4.44531 74.2099H77.8484V72.7099H4.44531V74.2099ZM78.5984 73.4599V44.2362H77.0984V73.4599H78.5984ZM85.4331 17.1082V73.4599H86.9331V17.1082H85.4331ZM86.1831 74.2099H244.541V72.7099H86.1831V74.2099ZM244.081 74.052L265.296 90.5452L266.217 89.3609L245.001 72.8678L244.081 74.052ZM265.756 90.7031H396.837V89.2031H265.756V90.7031ZM397.587 89.9531V17.1082H396.087V89.9531H397.587ZM396.837 16.3582H265.756V17.8582H396.837V16.3582ZM266.2 16.5036L244.985 0.926704L244.097 2.1358L265.312 17.7127L266.2 16.5036ZM244.541 0.78125H86.1831V2.28125H244.541V0.78125ZM85.4331 1.53125V17.1082H86.9331V1.53125H85.4331ZM404.205 17.1082V44.2362H405.705V17.1082H404.205ZM404.955 17.8582H473.107V16.3582H404.955V17.8582Z" fill="url(#paint0_linear_920_1585)"/>
<defs>
<linearGradient id="paint0_linear_920_1585" x1="238.776" y1="1.53125" x2="238.776" y2="89.9531" gradientUnits="userSpaceOnUse">
<stop stop-color="#4EDFFF" stop-opacity="0.73"/>
<stop offset="0.654167" stop-color="#61C7F8" stop-opacity="0.11"/>
<stop offset="1" stop-color="#FF00BF" stop-opacity="0.61"/>
</linearGradient>
</defs>
</svg>
